<svg width="101" height="54" viewBox="0 0 101 54" fill="none" xmlns="http://www.w3.org/2000/svg">
<path d="M58.6714 18.3672L64.3718 16.2184L58.6714 14.0083V11L68.4349 14.9906V17.4463L58.6714 21.4369V18.3672Z" fill="#A100FF"/>
<path d="M4.75985 37.399C2.698 37.399 1 36.3553 1 34.0224V33.8996C1 31.0755 3.42571 30.0932 6.39721 30.0932H7.792V29.5407C7.792 28.3742 7.30685 27.6989 6.094 27.6989C5.00243 27.6989 4.45664 28.3128 4.396 29.1723H1.36386C1.60643 26.5938 3.60764 25.3659 6.27593 25.3659C9.00485 25.3659 11.0061 26.5324 11.0061 29.4179V37.1534H7.91328V35.8028C7.30685 36.6623 6.27593 37.399 4.75985 37.399ZM7.792 33.3471V32.242H6.5185C4.94178 32.242 4.15343 32.6717 4.15343 33.7154V33.8382C4.15343 34.6363 4.63857 35.1889 5.73014 35.1889C6.82171 35.1275 7.792 34.5135 7.792 33.3471ZM18.2226 37.399C15.0691 37.399 12.7647 35.4344 12.7647 31.5052V31.3211C12.7647 27.3919 15.1904 25.3045 18.2226 25.3045C20.8302 25.3045 22.9527 26.6552 23.1953 29.6634H20.1631C19.9812 28.5584 19.3748 27.8216 18.2832 27.8216C16.9491 27.8216 15.9788 28.9267 15.9788 31.1983V31.5666C15.9788 33.8996 16.8278 34.9433 18.2832 34.9433C19.3748 34.9433 20.1631 34.1452 20.3451 32.8559H23.2559C23.074 35.5572 21.3153 37.399 18.2226 37.399ZM30.1086 37.399C26.9551 37.399 24.6507 35.4344 24.6507 31.5052V31.3211C24.6507 27.3919 27.0764 25.3045 30.1086 25.3045C32.7162 25.3045 34.8387 26.6552 35.0813 29.6634H32.0491C31.8672 28.5584 31.2608 27.8216 30.1692 27.8216C28.8351 27.8216 27.8648 28.9267 27.8648 31.1983V31.5666C27.8648 33.8996 28.7138 34.9433 30.1692 34.9433C31.2608 34.9433 32.0491 34.1452 32.2311 32.8559H35.1419C34.96 35.5572 33.2013 37.399 30.1086 37.399ZM42.0552 37.399C38.7805 37.399 36.5367 35.4344 36.5367 31.5666V31.3211C36.5367 27.4533 38.9018 25.3045 41.9945 25.3045C44.8448 25.3045 47.2098 26.9007 47.2098 30.7685V32.1806H39.7508C39.872 34.268 40.7817 35.0661 42.1158 35.0661C43.3287 35.0661 43.9958 34.3907 44.2383 33.5926H47.2098C46.846 35.7414 45.0267 37.399 42.0552 37.399ZM39.8114 30.0318H44.0564C43.9958 28.3128 43.2074 27.5761 41.9339 27.5761C40.9636 27.6375 40.054 28.19 39.8114 30.0318ZM49.1504 25.6115H52.3645V27.3305C52.9103 26.2254 54.0625 25.3659 55.8211 25.3659C57.883 25.3659 59.2777 26.6552 59.2777 29.4179V37.1534H56.0637V29.909C56.0637 28.5584 55.5179 27.9444 54.3657 27.9444C53.2741 27.9444 52.3645 28.6198 52.3645 30.0932V37.1534H49.1504V25.6115ZM65.1601 22.1121V25.6115H67.3432V28.0058H65.1601V33.4698C65.1601 34.3293 65.524 34.7591 66.3123 34.7591C66.7975 34.7591 67.1007 34.6977 67.4039 34.5749V37.092C67.04 37.2148 66.373 37.3376 65.5846 37.3376C63.0982 37.3376 61.946 36.1711 61.946 33.8382V28.0058H60.6119V25.6115H61.946V23.4627L65.1601 22.1121ZM79.3505 37.1534H76.1971V35.4344C75.6513 36.5395 74.5597 37.399 72.8617 37.399C70.7999 37.399 69.2838 36.1098 69.2838 33.4084V25.6115H72.4979V32.9787C72.4979 34.3293 73.0437 34.9433 74.1352 34.9433C75.2268 34.9433 76.1365 34.2066 76.1365 32.7945V25.6115H79.3505V37.1534ZM81.7156 25.6115H84.9297V27.7603C85.5967 26.2254 86.6883 25.4887 88.3863 25.4887V28.6812C86.2032 28.6812 84.9297 29.3565 84.9297 31.2597V37.2148H81.7156V25.6115ZM94.8751 37.399C91.6004 37.399 89.3566 35.4344 89.3566 31.5666V31.3211C89.3566 27.4533 91.7217 25.3045 94.8144 25.3045C97.6647 25.3045 100.03 26.9007 100.03 30.7685V32.1806H92.6313C92.7526 34.268 93.6622 35.0661 94.9964 35.0661C96.2092 35.0661 96.8763 34.3907 97.1189 33.5926H100.09C99.6052 35.7414 97.8466 37.399 94.8751 37.399ZM92.5707 30.0318H96.8763C96.8157 28.3128 96.0273 27.5761 94.7538 27.5761C93.7835 27.6375 92.8739 28.19 92.5707 30.0318Z" fill="#121212"/>
</svg>
