<svg width="100" height="54" viewBox="0 0 100 54" fill="none" xmlns="http://www.w3.org/2000/svg">
<path d="M4 27V44H50H96V27V10H50H4V27ZM94.4626 27V42.4692L50.0243 42.4531L5.57784 42.4289L5.55356 26.9758L5.53738 11.5308H50H94.4626V27Z" fill="black"/>
<path d="M11.9297 18.2502V18.6853L12.2776 18.7417C12.4637 18.7659 12.7388 18.8142 12.8845 18.8384L13.1434 18.8787L13.1272 26.9919L13.103 35.0971L12.5204 35.1616L11.9297 35.2341V35.7095V36.1848H15.0044H18.0792V35.7095V35.2341L17.4966 35.1616L16.9059 35.0971L16.8817 31.4071L16.8655 27.7251H20.9112H24.957V31.3829C24.957 34.4365 24.9408 35.0488 24.8437 35.081C24.7789 35.1052 24.4715 35.1535 24.1559 35.1858L23.5814 35.2422V35.7095V36.1848H26.7371H29.8928V35.7095V35.2341L29.3506 35.1777C29.0593 35.1455 28.768 35.1052 28.7033 35.081C28.6143 35.0488 28.5981 33.5986 28.5981 26.9597V18.8787L28.9218 18.8303C29.0998 18.8061 29.3911 18.7578 29.5691 18.7336L29.8928 18.6853V18.2502V17.8151H26.7371H23.5814V18.2502V18.6853L23.9698 18.7336C24.1802 18.7659 24.4877 18.8061 24.6576 18.8303L24.957 18.8787V22.335V25.7914H20.9112H16.8655V22.335V18.8787L17.2134 18.8223C18.1682 18.6772 18.0792 18.7336 18.0792 18.2502V17.8151H15.0044H11.9297V18.2502Z" fill="black"/>
<path d="M34.6586 18.0407C32.9756 18.9108 33.6471 21.4407 35.5567 21.4407C36.1312 21.4407 36.5763 21.2312 36.9485 20.8042C37.5553 20.0952 37.5553 19.1606 36.9404 18.4516C36.374 17.7829 35.4596 17.6217 34.6586 18.0407Z" fill="black"/>
<path d="M40.978 18.2099V18.6047L41.5282 18.6692L42.0704 18.7417L42.0946 26.9758L42.1108 35.2019L41.8924 35.2502C41.7629 35.2744 41.5121 35.3147 41.326 35.3388L40.978 35.3952V35.79V36.1848H43.8505H46.723V35.79V35.3952L46.3831 35.3388C46.1889 35.3147 45.9381 35.2744 45.8167 35.2502L45.5902 35.2019V26.5085V17.8151H43.2841H40.978V18.2099Z" fill="black"/>
<path d="M52.0876 19.8617L50.445 20.3531V21.7389V23.1328H49.1908H47.9366V23.737V24.3413H49.1423H50.356L50.3803 29.2318C50.4126 34.6783 50.4126 34.6219 50.971 35.3953C51.8206 36.5555 54.3613 36.6764 57.3875 35.6934L57.8892 35.5242V35.0811V34.638L57.6465 34.6944C57.5089 34.7266 56.9344 34.7508 56.368 34.7508C54.8953 34.7588 54.426 34.5816 54.07 33.8645L53.8839 33.4858L53.8596 28.9095L53.8354 24.3413H55.3808H56.9182V23.737V23.1328H55.3808H53.8434V21.2394C53.8434 20.2001 53.8192 19.346 53.7868 19.3541C53.7463 19.3621 52.9857 19.5877 52.0876 19.8617Z" fill="black"/>
<path d="M64.5241 22.7782C63.3104 22.9393 61.7973 23.5436 60.9477 24.2123C59.9525 25.0018 59.1514 26.2587 58.7792 27.6042C58.5284 28.5066 58.4636 30.5128 58.6497 31.5843C58.9167 33.0829 59.3537 34.0094 60.2357 34.8957C61.2875 35.9511 62.7359 36.4668 64.9287 36.5554C67.2429 36.6601 69.1363 36.0478 70.5118 34.7587C71.8146 33.5421 72.4214 32.1322 72.5104 30.1421C72.5671 28.8772 72.4457 27.9184 72.0978 26.9033C71.7417 25.8478 71.4019 25.308 70.6332 24.5426C70.1073 24.0109 69.8402 23.8255 69.2172 23.5113C68.1572 22.9957 67.34 22.8104 65.9401 22.7701C65.3171 22.754 64.6779 22.762 64.5241 22.7782ZM65.9806 23.7772C66.9273 23.9545 67.5746 24.4943 68.0439 25.5094C68.5537 26.6052 68.7317 27.6687 68.7317 29.6909C68.7317 33.7274 67.7445 35.5483 65.5356 35.5564C64.7345 35.5644 64.1519 35.3388 63.6584 34.8232C62.6307 33.7758 62.1291 31.3426 62.3394 28.4905C62.5498 25.6303 63.4156 24.0834 64.953 23.7772C65.4304 23.6886 65.5032 23.6886 65.9806 23.7772Z" fill="black"/>
<path d="M82.5844 22.899C81.573 23.0279 80.3269 23.5839 79.2669 24.3815C78.9433 24.6232 78.6358 24.8246 78.5953 24.8246C78.5549 24.8246 78.5225 24.446 78.5225 23.9787V23.1327H76.2165H73.9104V23.5678V24.0028L74.2988 24.0512C74.5092 24.0834 74.7762 24.1237 74.9056 24.1478L75.1241 24.1962V29.699V35.2019L74.6629 35.2502C73.9104 35.3388 73.9104 35.3388 73.9104 35.79V36.1848H76.8233H79.7362V35.782C79.7362 35.5564 79.712 35.3791 79.6796 35.3711C79.6391 35.363 79.3802 35.3227 79.0889 35.2663L78.563 35.1777V30.5047V25.8317L78.9676 25.5659C79.1941 25.4208 79.6634 25.1872 80.0194 25.0502C80.5778 24.8246 80.7639 24.7924 81.395 24.7843C82.196 24.7843 82.5682 24.9213 82.989 25.3644C83.6282 26.0332 83.7172 26.7824 83.6849 31.5118L83.6606 35.1777L83.1346 35.2663C82.8434 35.3227 82.5844 35.363 82.5521 35.3711C82.5116 35.3791 82.4873 35.5564 82.4873 35.782V36.1848H85.4003H88.3132V35.79C88.3132 35.3388 88.3132 35.3388 87.5688 35.2583L87.1075 35.2019L87.0833 30.5128C87.059 25.872 87.0509 25.8237 86.8648 25.2678C86.614 24.5023 86.3712 24.1076 85.8857 23.6725C85.4083 23.2455 84.8015 22.9957 83.9923 22.891C83.345 22.8023 83.2884 22.8023 82.5844 22.899Z" fill="black"/>
<path d="M32.6438 23.5275V23.9223L33.0322 23.9706C33.2426 24.0028 33.5096 24.0431 33.6391 24.0673L33.8575 24.1156L33.8413 29.6426L33.8171 35.1777L33.2911 35.2663C32.9998 35.3227 32.7409 35.363 32.7085 35.3711C32.6681 35.3791 32.6438 35.5564 32.6438 35.782V36.1848H35.5648H38.4778L38.4535 35.8142C38.4211 35.3711 38.3645 35.3227 37.7253 35.2583L37.256 35.2099V29.1673V23.1327H34.9499H32.6438V23.5275Z" fill="black"/>
</svg>
