<svg id="Layer_1" data-name="Layer 1" xmlns="http://www.w3.org/2000/svg" viewBox="0 0 1127.94 239.87"><defs><style>.cls-1{fill:#0033a0;}</style></defs><path class="cls-1" d="M647.49,147.29l67.08-65.55H648.51V50.87h113V82.24l-67.08,65.3h68.35V178.4H647.49Z"/><rect class="cls-1" x="599.83" y="8.92" width="34.95" height="31.73"/><rect class="cls-1" x="599.37" y="51.26" width="34.95" height="127.53"/><path class="cls-1" d="M176.72,114.64A66.06,66.06,0,1,1,242.78,181,66,66,0,0,1,176.72,114.64Zm98.2,0c0-18.11-14.28-33.16-32.14-33.16-18.11,0-31.88,15-31.88,33.16s13.77,33.15,31.88,33.15C260.64,147.79,274.92,132.75,274.92,114.64Z"/><path class="cls-1" d="M466.54,50.87h34.69V65.16a43.92,43.92,0,0,1,35.2-16.84c30.1,0,48.21,19.39,48.21,52.29V178.4H549.18V105.2c0-17.09-7.9-27-23.46-27-13.26,0-24.23,9.17-24.23,30.6V178.4H466.54Z"/><path class="cls-1" d="M764.78,114.64c0-45.15,33.16-66.32,62-66.32,16.58,0,29.58,6.12,38,15V50.87h35V178.4h-35V164.12c-8.42,9.94-21.93,16.83-38.51,16.83C799.21,181,764.78,159.53,764.78,114.64Zm101-.26c0-18.87-13.77-34.17-32.64-34.17-19.39,0-34.18,14.53-34.18,34.17s14.79,34.44,34.18,34.44C852,148.82,865.78,133.25,865.78,114.38Z"/><path class="cls-1" d="M913.81,50.87H948.5V65.16a43.9,43.9,0,0,1,35.19-16.84c30.1,0,48.21,19.39,48.21,52.29V178.4H996.45V105.2c0-17.09-7.91-27-23.47-27-13.26,0-24.23,9.17-24.23,30.6V178.4H913.81Z"/><path class="cls-1" d="M647.49,178.4V147.29l67.08-65.55H648.51V50.87h113V82.24l-67.08,65.3"/><path class="cls-1" d="M139.45,113.53l-.48,1c-9.65,20.34-27.39,32-48.68,32-30.87,0-55-24.39-55-55.53,0-31.93,24-56,55.77-56,20.61,0,36.27,9.66,46.55,28.7l.55,1,31.1-19.89-.53-.89C152.53,16.43,123.49,0,91,0,39.13,0,0,39.13,0,91c0,52.74,38.28,91,91,91,34,0,64-18.87,80.34-50.47l.48-.95Z"/><path class="cls-1" d="M317.65,114.64c0-45.15,33.15-66.32,62-66.32,16.57,0,29.58,6.89,38,16.32V50.87h34.94v124c0,36-22.7,65-65.8,65-32.39,0-56.11-16.83-66.31-36.73l30.86-17.34c6.63,13.26,18.36,21.68,35.45,21.68,18.87,0,30.86-14.79,30.86-31.37v-12C409.21,174.06,395.7,181,379.12,181,352.08,181,317.65,159.53,317.65,114.64Zm101-.26c0-18.87-13.77-34.17-32.65-34.17-19.38,0-34.17,14.53-34.17,34.17s14.79,34.44,34.17,34.44C404.88,148.82,418.65,133.25,418.65,114.38Z"/><path class="cls-1" d="M1118,82.25V50.87h-24V8.8h-35V50.87h-21.67V82.25H1059v40.8c0,41.58,13.27,55.35,53.82,55.35h5.1V145.75c-21.42,0-24-3.06-24-23V82.25Z"/><path class="cls-1" d="M1125.33,24a8.91,8.91,0,0,1-12.62,0,8.67,8.67,0,0,1-2.59-6.33,8.58,8.58,0,0,1,2.61-6.3,8.93,8.93,0,0,1,12.6,0,8.55,8.55,0,0,1,2.61,6.3A8.65,8.65,0,0,1,1125.33,24Zm-11.74-11.75a7.4,7.4,0,0,0-2.23,5.43,7.52,7.52,0,0,0,2.22,5.47,7.65,7.65,0,0,0,10.86,0,7.5,7.5,0,0,0,2.24-5.47,7.41,7.41,0,0,0-2.24-5.43,7.64,7.64,0,0,0-10.85,0Zm5.25.49a7.36,7.36,0,0,1,2.68.36,2.43,2.43,0,0,1,1.51,2.48,2.13,2.13,0,0,1-1,1.93,3.74,3.74,0,0,1-1.42.48,2.34,2.34,0,0,1,1.68,1,2.63,2.63,0,0,1,.54,1.51v.72c0,.23,0,.47,0,.73a1.65,1.65,0,0,0,.09.51l.06.12h-1.62l0-.1,0-.11,0-.31v-.78a2.38,2.38,0,0,0-.93-2.24,4.14,4.14,0,0,0-1.92-.31h-1.36v3.85h-1.72v-9.8Zm1.87,1.55a4.43,4.43,0,0,0-2.09-.37h-1.48V17.5h1.56a4.64,4.64,0,0,0,1.65-.22,1.51,1.51,0,0,0,1-1.53A1.5,1.5,0,0,0,1120.71,14.32Z"/></svg>