<svg width="126" height="54" viewBox="0 0 126 54" fill="none" xmlns="http://www.w3.org/2000/svg">
<path fill-rule="evenodd" clip-rule="evenodd" d="M17.7181 21.8635C18.1491 21.8755 18.1033 22.1822 18.032 22.2879C16.7599 24.291 13.7539 27.8181 11.5652 31.6879C11.2029 32.3149 10.933 32.7762 10.933 33.4643C10.933 34.3972 11.5084 35.5002 12.6643 35.9735C13.4246 36.2818 13.9033 36.2912 14.7239 36.3032C20.8165 36.494 23.2589 36.3273 28.7107 36.1401C29.0256 36.1392 29.3184 35.9245 29.4236 35.7948C30.4776 34.6823 31.0852 32.6826 31.0852 30.9182C31.0852 26.9883 28.2889 23.4484 23.9268 21.7458L23.2267 22.6546C27.0499 24.2541 29.0256 27.4487 29.0256 30.8701C29.0256 31.6398 28.8966 32.3854 28.6632 33.0975C28.4901 33.594 28.2771 33.8792 27.6575 33.8886C23.2148 33.9848 20.6994 34.0552 16.2447 33.9367C15.6702 33.9247 15.4844 33.7126 15.391 33.2521C15.3197 32.9789 15.3791 32.7521 15.565 32.4094C17.9277 28.1729 22.0436 23.3306 22.8516 22.1822C23.0052 21.97 22.933 21.5422 22.406 21.4005C20.864 20.9392 19.1336 20.752 17.3794 20.752C9.43681 20.7846 3.83478 25.3063 3.70581 30.9182C4.02407 37.6545 9.81103 41.1335 17.3794 41.1335C22.0106 41.1335 26.253 39.4764 28.7353 36.8487L26.4422 36.9424C24.3248 38.8485 20.9328 39.8673 17.4244 39.8673C11.0297 39.8673 5.8232 36.6486 5.8232 30.8701C5.8232 25.9 11.0289 21.8515 17.4244 21.8515L17.7181 21.8635ZM70.2518 34.0303L74.5773 31.1553L68.0299 26.2186V27.4272H58.3451C57.0814 27.4272 56.0418 28.3369 55.8534 29.5214L67.0812 29.5094V31.6638L58.4969 31.6758C57.1408 31.6758 56.0299 32.7187 55.9705 34.0303H70.2518ZM111.381 27.3911H121.31V25.2729H111.325C107.591 25.2729 104.54 28.1608 104.387 31.7823L116.423 31.7695C117.205 31.7695 117.836 32.2909 117.836 32.9188C117.836 33.5579 117.204 34.0673 116.423 34.0673L103.172 34.0664V25.2729H99.2419V34.0089H91.3494C90.191 33.8182 89.8278 32.9669 89.8278 31.309L89.8286 25.2729H83.4908L77.7929 29.012L72.8351 25.2729H57.5847C54.2045 25.2729 51.3869 27.6274 50.7665 30.7636H53.8302C52.6743 31.5573 51.7849 32.6826 51.2935 34.0098L41.5968 34.0089C40.4536 33.8182 40.0785 32.9669 40.0785 31.309L40.0794 25.2729H36.1602V30.9062C35.9956 34.6368 37.995 35.9735 40.2762 36.1856L70.7423 36.1847L76.3562 32.5151L81.2571 36.2337H87.2538L79.6193 30.4217L85.8976 26.3028L85.9095 30.9062C85.7483 34.6368 87.9446 35.9735 90.2266 36.1856L118.737 36.1847C120.702 36.1847 122.294 34.7304 122.294 32.9188C122.294 31.1183 120.701 29.6641 118.737 29.6641H108.89C108.983 28.397 110.061 27.3911 111.381 27.3911Z" fill="black"/>
</svg>
