<svg width="129" height="54" viewBox="0 0 129 54" fill="none" xmlns="http://www.w3.org/2000/svg">
<path fill-rule="evenodd" clip-rule="evenodd" d="M8.24251 21.3223H1V38.6777H8.65848C13.0261 38.6777 15.3506 36.9545 15.3506 33.7064C15.3506 31.9461 14.176 30.4711 12.2554 29.8138C13.858 29.219 14.8368 27.8182 14.8368 26.1322C14.8368 22.9958 12.5368 21.3223 8.24251 21.3223ZM4.64588 24.4957H8.14465C9.74726 24.4957 11.0321 24.8554 11.0321 26.38C11.0321 27.9793 9.7718 28.3139 8.14465 28.3139H4.64588V24.4956V24.4957ZM4.64588 31.5866H8.48731C10.3835 31.5866 11.5579 31.9957 11.5579 33.533C11.5579 35.0827 10.3836 35.504 8.48731 35.504H4.64572V31.5866H4.64588ZM26.3673 21C21.0086 21 17.2405 24.8057 17.2405 29.9999C17.2405 35.1942 21.0088 39 26.3673 39C31.7135 39 35.494 35.1942 35.494 29.9999C35.494 24.8057 31.7135 21 26.3673 21ZM26.3673 24.3223C29.4623 24.3223 31.6768 26.628 31.6768 29.9999C31.6768 33.372 29.4623 35.6777 26.3673 35.6777C23.284 35.6777 21.0454 33.372 21.0454 29.9999C21.0454 26.628 23.2842 24.3222 26.3673 24.3222V24.3223ZM53.6921 38.6777V21.3223H50.0217V32.3677L41.6293 21.3223H38.0443V38.6777H41.7148V27.5452L50.1442 38.6776H53.6921V38.6777ZM65.406 21C60.0476 21 56.2794 24.8057 56.2794 29.9999C56.2794 35.1942 60.0475 39 65.406 39C70.7523 39 74.5327 35.1942 74.5327 29.9999C74.5327 24.8057 70.7525 21 65.406 21ZM65.406 24.3223C68.5012 24.3223 70.7156 26.628 70.7156 29.9999C70.7156 33.372 68.5012 35.6777 65.406 35.6777C62.323 35.6777 60.0841 33.372 60.0841 29.9999C60.0841 26.628 62.323 24.3222 65.406 24.3222V24.3223ZM84.2647 21.3221H77.0222V38.6776H84.6807C89.0483 38.6776 91.3728 36.9543 91.3728 33.7063C91.3728 31.946 90.1984 30.4709 88.2775 29.8137C89.8801 29.2188 90.859 27.818 90.859 26.132C90.859 22.9956 88.559 21.3221 84.2647 21.3221ZM80.6679 24.4956H84.167C85.7696 24.4956 87.0541 24.8552 87.0541 26.3799C87.0541 27.9791 85.7942 28.3137 84.167 28.3137H80.6679V24.4956ZM80.6679 31.5865H84.5095C86.4057 31.5865 87.5803 31.9956 87.5803 33.5329C87.5803 35.0825 86.4059 35.5038 84.5095 35.5038H80.6681V31.5866L80.6679 31.5865ZM102.389 21C97.031 21 93.2627 24.8057 93.2627 29.9999C93.2627 35.1942 97.031 39 102.389 39C107.736 39 111.516 35.1942 111.516 29.9999C111.516 24.8057 107.736 21 102.389 21ZM102.389 24.3223C105.485 24.3223 107.699 26.628 107.699 29.9999C107.699 33.372 105.485 35.6777 102.389 35.6777C99.3064 35.6777 97.0676 33.372 97.0676 29.9999C97.0676 26.628 99.3064 24.3222 102.389 24.3222V24.3223ZM120.6 38.9873C124.246 38.9873 127.732 37.3757 127.732 33.6694C127.732 30.8925 125.958 29.3552 122.973 28.6115L120.918 28.1033C118.104 27.4091 117.578 27.062 117.578 26.0577C117.578 25.0535 118.557 24.3222 120.6 24.3222C122.215 24.3222 123.365 24.9545 124.136 26.1817L127.255 24.5702C126.472 22.3512 123.878 21.0124 120.649 21.0124C116.648 21.0124 113.749 23.2189 113.749 26.3677C113.749 29.7768 116.391 30.9793 118.691 31.4999L121.187 32.0701C123.169 32.5163 123.878 32.8512 123.878 33.8925C123.878 35.157 122.569 35.6777 120.722 35.6777C118.569 35.6777 116.917 34.5745 116.159 33.0495L113.063 34.9088C114.409 37.7229 117.211 38.9873 120.6 38.9873Z" fill="#232323"/>
</svg>
