<svg width="192" height="54" viewBox="0 0 192 54" fill="none" xmlns="http://www.w3.org/2000/svg">
<path d="M185.061 30.2538H181.522V25.1683H185.184C186.892 25.2139 188.137 26.2006 188.142 27.8155C188.123 29.2373 187.203 30.2132 185.061 30.2538ZM190.823 36.0694C189.761 34.6508 188.174 32.5495 187.481 31.6299C189.039 30.9605 190.124 29.6192 190.124 27.7794C190.119 25.4121 188.173 23.3304 185.226 23.3304H180.067L180.03 23.3216C179.835 23.3216 179.474 23.6826 179.474 23.9498C179.468 24.1759 179.468 36.2183 179.474 36.4944C179.478 36.5913 179.459 36.6958 179.579 36.887C179.735 37.0973 179.965 37.1087 180.067 37.1087H180.926C180.974 37.1087 181.156 37.1226 181.378 36.9041C181.54 36.7167 181.514 36.6002 181.522 36.4944V32.0517H185.365L188.861 36.792C188.952 36.9428 189.271 37.1087 189.501 37.1087H190.338C190.399 37.1087 190.998 36.9523 190.998 36.5603C191.017 36.3747 190.877 36.1296 190.823 36.0694ZM173.905 35.9662C173.893 35.8541 173.965 35.7509 173.772 35.4501C173.555 35.2689 173.414 35.2689 173.304 35.2689C173.291 35.2689 173.254 35.2841 173.221 35.2689H165.957V31.0302H173.084C173.517 31.0302 173.688 30.4336 173.688 30.2728V29.8801C173.688 29.7801 173.496 29.1835 173.084 29.1835H165.977V25.1708H173.165C173.255 25.181 173.518 25.1677 173.692 24.939C173.824 24.7148 173.813 24.599 173.819 24.4717V23.9903C173.784 23.8782 173.842 23.7446 173.689 23.5027C173.477 23.3317 173.304 23.3317 173.204 23.3317H164.435C164.38 23.3216 164.278 23.3216 164.105 23.4375C163.88 23.6503 163.953 23.8238 163.944 23.8554V36.4114C163.953 36.5343 163.89 36.6502 164.037 36.8484C164.189 37.0739 164.416 37.1081 164.534 37.1081H173.304C173.387 37.1081 173.518 37.1125 173.737 36.9421C173.959 36.6952 173.899 36.5596 173.905 36.4437V35.9662ZM153.792 29.1062L158.246 24.257C158.318 24.1664 158.394 24.0606 158.394 23.9245C158.362 23.5534 158.081 23.3311 157.744 23.3311H156.921C156.643 23.3026 156.359 23.4976 156.281 23.5527L149.582 30.9466V23.9739C149.582 23.8789 149.597 23.7446 149.449 23.5261C149.282 23.3361 149.05 23.3311 148.948 23.3311H148.181C148.086 23.3311 147.905 23.3311 147.704 23.4919C147.541 23.6693 147.546 23.8485 147.546 23.9492C147.541 24.1252 147.541 36.3646 147.546 36.5052C147.546 36.604 147.546 36.7914 147.712 36.9307C147.874 37.0815 148.069 37.1081 148.207 37.1081H148.894C149.014 37.0967 149.164 37.1125 149.401 36.9624C149.597 36.7762 149.581 36.5793 149.581 36.5052V33.6857L152.361 30.6395L157.102 36.7161C157.282 36.8579 157.34 37.0219 157.849 37.1087H158.75C158.959 37.1087 159.382 36.9041 159.382 36.566C159.378 36.3709 159.318 36.2797 159.242 36.1796L153.792 29.1062ZM136.439 30.2538H132.876V25.1683H136.53C138.241 25.2139 139.51 26.2006 139.524 27.8155C139.505 29.2373 138.581 30.2132 136.439 30.2538ZM138.854 31.6299C140.41 30.9605 141.506 29.6192 141.5 27.7794C141.5 25.4121 139.571 23.3304 136.576 23.3304H131.434L131.415 23.3209C131.225 23.3209 130.855 23.6819 130.855 23.9492V36.4944C130.86 36.5913 130.83 36.6958 130.971 36.887C131.126 37.0973 131.358 37.1087 131.434 37.1087H132.284C132.32 37.1087 132.528 37.1226 132.74 36.9041C132.911 36.7167 132.876 36.6002 132.876 36.4944V32.0517H136.74L140.254 36.792C140.324 36.9428 140.642 37.1087 140.883 37.1087H141.687C141.772 37.1087 142.372 36.9523 142.372 36.5603C142.38 36.3747 142.244 36.1296 142.19 36.0694C141.119 34.6508 139.566 32.5495 138.854 31.6299ZM116.572 32.2075C117.193 31.0074 118.55 28.3171 119.456 26.4172C119.467 26.4108 119.472 26.407 119.472 26.4007C119.491 26.4108 119.496 26.4165 119.511 26.4336C120.437 28.312 121.767 31.0061 122.355 32.2069L116.572 32.2075ZM120.054 23.3773C120.054 23.3659 119.853 22.9846 119.472 23.0005C119.111 22.9853 118.924 23.3773 118.924 23.3773C117.647 25.7744 113.113 34.7769 112.394 36.2183C112.333 36.2841 112.285 36.3747 112.285 36.5919C112.333 37.1087 112.868 37.1087 112.97 37.1087H113.647C113.973 37.1632 114.37 36.8079 114.383 36.6667L115.733 34.0017H123.232L124.593 36.7205C124.607 36.8427 124.954 37.1131 125.176 37.1131C125.185 37.1131 125.201 37.1131 125.214 37.1087H126.056C126.207 37.1087 126.695 36.9428 126.695 36.5856C126.683 36.419 126.624 36.3399 126.603 36.2398C125.797 34.6198 121.281 25.8301 120.054 23.3773ZM105.483 30.2848C104.367 30.2734 102.633 30.2734 101.788 30.2734V25.1708H105.445C107.104 25.2139 108.393 26.1164 108.393 27.7243C108.384 29.4292 107.111 30.2677 105.483 30.2848ZM105.507 23.3311H100.342C100.271 23.3216 100.074 23.3374 99.9278 23.4976C99.7853 23.6496 99.7555 23.8079 99.7555 23.9498V36.4944C99.7853 36.5913 99.7239 36.6958 99.91 36.9187C100.085 37.1087 100.261 37.1087 100.337 37.1087H101.232C101.297 37.1087 101.542 37.1087 101.694 36.8579C101.825 36.6508 101.775 36.5666 101.789 36.4944V32.1132H105.123C108.193 32.1068 110.42 30.4349 110.431 27.7243C110.42 25.0011 108.087 23.3311 105.507 23.3311ZM84.2439 23.3311H83.4377C83.1717 23.3184 82.8804 23.5781 82.8056 23.7491C82.1122 24.7845 79.7233 28.4431 78.7936 29.8909C77.8582 28.4216 75.477 24.7338 74.7829 23.6952C74.7829 23.573 74.3168 23.2614 74.1141 23.3311H73.4004C73.261 23.3311 72.7721 23.3311 72.6733 23.8548C72.6822 24.0309 72.7481 24.1195 72.7721 24.1759C73.7772 25.7288 77.242 31.1106 77.7835 31.9118V36.4653C77.7943 36.5907 77.7544 36.7161 77.9355 36.9174C78.0653 37.0808 78.2636 37.1074 78.3643 37.1074H79.1508C79.2711 37.1074 79.4421 37.1074 79.6594 36.9174C79.8348 36.6787 79.7949 36.5501 79.7949 36.4171V31.9111C80.3332 31.1258 83.6771 25.9644 84.7651 24.2405C84.8063 24.1183 84.8614 24.0796 84.8766 23.8542C84.8411 23.357 84.3142 23.3298 84.2452 23.3298L84.2439 23.3311ZM64.4004 35.2848H59.9147V31.0619H64.3643C66.3086 31.091 67.3003 31.9567 67.3174 33.2069C67.2604 34.6287 66.5315 35.2037 64.4004 35.2848ZM59.9153 25.1677H63.8083C65.6639 25.2183 66.548 26.0119 66.5714 27.2025C66.4663 28.7288 66.0299 29.1835 64.1363 29.2626H59.9153V25.1677ZM67.3675 29.9719C68.1464 29.3944 68.6385 28.4222 68.61 27.124C68.61 24.6749 66.3428 23.3317 63.6791 23.3317H58.5176C58.4258 23.3317 58.2352 23.3317 58.0445 23.4824C57.8577 23.6294 57.8577 23.8497 57.8577 23.9751V36.4957C57.8577 36.6971 58.1851 37.11 58.472 37.11H64.5467C67.4916 37.11 69.3535 35.8022 69.363 33.2088C69.363 31.7667 68.5834 30.5698 67.3675 29.9719ZM46.7406 30.2544H43.1453V25.1708H46.8299C48.5107 25.2139 49.7748 26.2012 49.8064 27.8149C49.7457 29.2373 48.8406 30.2278 46.74 30.2531L46.7406 30.2544ZM49.1377 31.635C50.6905 30.9618 51.7963 29.6211 51.7963 27.7807C51.7659 25.4071 49.8482 23.3311 46.8799 23.3311H41.7077C41.6336 23.3216 41.4316 23.3374 41.296 23.4976C41.1504 23.6496 41.1352 23.8079 41.1352 23.9498V36.4944C41.1352 36.5913 41.0997 36.6958 41.2352 36.8807C41.4113 37.1087 41.6418 37.1087 41.7337 37.1087H42.5772C42.6532 37.1087 42.8242 37.1087 43.0186 36.9187C43.1896 36.6958 43.1339 36.5913 43.1542 36.4944V32.0726H47.0205L50.5316 36.792C50.6392 36.9314 50.8926 37.1087 51.1206 37.1087H51.9705C52.0604 37.1087 52.643 36.9782 52.643 36.5603C52.6525 36.3703 52.5037 36.1233 52.4562 36.0694C51.4011 34.6616 49.8387 32.5495 49.1351 31.6337L49.1377 31.635ZM26.7344 32.2088C27.3278 31.0087 28.6945 28.3184 29.6248 26.4184C29.6248 26.4121 29.6292 26.4083 29.6292 26.3931C29.6337 26.4121 29.6457 26.4184 29.6546 26.4349C30.6001 28.3133 31.9066 31.0074 32.5196 32.2082L26.7344 32.2088ZM30.1941 23.3773C30.1941 23.3659 30.0276 22.9846 29.6343 23.0005C29.2733 22.9853 29.058 23.3773 29.058 23.3773C27.8167 25.7744 23.2714 34.7769 22.5495 36.2183C22.4925 36.2841 22.4228 36.3747 22.4228 36.5919C22.4925 37.1087 23.0371 37.1087 23.1321 37.1087H23.8097C24.1327 37.1632 24.5102 36.8079 24.5545 36.6667L25.8503 34.0017H33.3708L34.7179 36.7205C34.7305 36.8427 35.0978 37.1131 35.3068 37.1131C35.3195 37.1131 35.3448 37.1131 35.3556 37.1087H36.215C36.3594 37.1087 36.8356 36.9428 36.8356 36.5856C36.8356 36.419 36.7913 36.3399 36.7381 36.2398C35.9585 34.6198 31.4494 25.8295 30.1941 23.3773ZM19.8237 23.3311H19.1442C18.9757 23.2772 18.4475 23.5192 18.4475 23.7446L14.8548 33.1822L11.3608 23.6737C11.2975 23.3722 10.8161 23.2709 10.78 23.2962H10.7256C10.5457 23.2367 10.1645 23.5432 10.1645 23.6826L6.7807 33.1904C5.93587 31.0524 4.1284 26.4577 3.09801 23.8282C3.05494 23.6192 2.75602 23.3026 2.43747 23.3311H1.5616C1.5046 23.3311 1.42227 23.3216 1.23228 23.4026C1.05622 23.504 0.990357 23.7446 1.00112 23.8396C1.00112 23.996 1.05179 24.0657 1.07395 24.1753L6.17019 37.0314C6.36335 37.3392 6.64897 37.3988 6.74017 37.3988H6.7807C6.7807 37.3988 7.23985 37.4266 7.37791 36.9934C8.34877 34.324 9.98271 29.9213 10.7661 27.8307C11.5337 29.946 13.1676 34.4285 14.1315 36.9972C14.1948 37.3044 14.6952 37.4108 14.7496 37.3988C14.7889 37.4114 15.2898 37.3038 15.3354 37.0124C17.0441 32.7313 19.0897 27.5736 20.4114 24.1753C20.4456 24.0657 20.4621 24.0252 20.476 23.8548C20.476 23.4026 19.8782 23.3311 19.8237 23.3311Z" fill="#414B56"/>
</svg>
