<svg width="232" height="54" viewBox="0 0 232 54" fill="none" xmlns="http://www.w3.org/2000/svg">
<path d="M5.14537 20.3071H11.7473V20.7677H11.4402C10.6725 20.7677 10.2119 20.7677 10.0584 20.9213C9.90487 21.0748 9.75134 21.3819 9.59781 21.6889C9.59781 21.996 9.44428 22.7636 9.44428 23.9919V28.9049C9.44428 30.1332 9.44428 31.0544 9.29075 31.6685C9.29075 32.1291 9.13721 32.7432 8.67662 33.3574C8.21602 33.9715 7.60189 34.4321 6.83423 34.7392C6.06657 35.0462 5.29891 35.1998 4.37771 35.1998C3.30298 35.1998 2.53532 35.0462 1.92119 34.5856C1.30706 34.2786 1 33.818 1 33.2038C1 32.8968 1.15353 32.5897 1.30706 32.4362C1.4606 32.2827 1.76766 32.1291 2.07473 32.1291C2.38179 32.1291 2.68886 32.2827 2.84239 32.4362C2.99592 32.5897 3.14945 32.8968 3.14945 33.2038C3.14945 33.3574 3.14945 33.5109 2.99592 33.818V33.9715C2.99592 34.125 3.14945 34.4321 3.45652 34.4321C3.76358 34.5856 4.07065 34.5856 4.37771 34.5856C5.14537 34.5856 5.91303 34.2786 6.37363 33.818C6.83423 33.5109 7.14129 32.8968 7.29483 32.1291C7.44836 31.515 7.44836 30.2867 7.44836 28.7514V23.8384C7.44836 22.7636 7.44836 21.996 7.29483 21.6889C7.29483 21.3819 7.14129 21.0748 6.83423 21.0748C6.6807 20.9213 6.2201 20.7677 5.60597 20.7677H5.14537V20.3071Z" fill="#121212"/>
<path d="M17.7349 27.8302V30.9008C17.7349 31.9756 17.7349 32.7432 17.8885 33.0503C17.8885 33.5109 17.8885 33.6644 18.1955 33.8179C18.5026 33.9715 18.8097 34.125 19.5773 34.125H20.0379V34.5856H13.436V34.125H13.7431C14.3572 34.125 14.8178 33.9715 15.1249 33.8179C15.432 33.6644 15.5855 33.3573 15.5855 33.0503C15.5855 32.7432 15.739 31.9756 15.739 30.7473V23.8383C15.739 22.7636 15.739 21.996 15.5855 21.6889C15.5855 21.3818 15.432 21.0748 15.1249 21.0748C14.8178 20.9212 14.3572 20.7677 13.5896 20.7677H13.436V20.3071H15.2784C16.6602 20.3071 17.8885 20.1536 18.6561 20.1536C20.1915 20.1536 21.2662 20.3071 22.0338 20.4606C22.8015 20.7677 23.4156 21.0748 24.0298 21.6889C24.4904 22.303 24.7974 23.0707 24.7974 23.9919C24.7974 24.7595 24.6439 25.5272 24.3368 25.9878C24.0298 26.6019 23.4156 27.0625 22.8015 27.3696C22.0338 27.6766 20.9591 27.8302 19.2703 27.8302H17.7349ZM17.7349 27.3696H18.8097C19.5773 27.3696 20.345 27.2161 20.8056 27.0625C21.2662 26.909 21.7268 26.6019 22.0338 25.9878C22.3409 25.5272 22.4944 24.9131 22.4944 24.1454C22.4944 22.9171 22.1874 22.1495 21.5732 21.5354C20.9591 20.9212 20.0379 20.7677 18.8097 20.7677C18.3491 20.7677 17.8885 20.7677 17.7349 20.7677V27.3696Z" fill="#121212"/>
<path d="M36.6196 32.1291L41.8397 20.3071H46.2921V20.7677H45.8315C45.0639 20.7677 44.6033 20.7677 44.4497 20.9213C44.2962 21.0748 44.1427 21.2283 43.9891 21.5354C43.9891 21.8425 43.8356 22.6101 43.8356 23.8384V30.9009C43.8356 31.9756 43.8356 32.7432 43.9891 33.0503C43.9891 33.5109 43.9891 33.6644 44.2962 33.818C44.4497 33.9715 44.9103 34.125 45.678 34.125H46.2921V34.5856H39.3832V34.125H39.8438C40.4579 34.125 40.9185 33.9715 41.072 33.9715C41.3791 33.818 41.5326 33.5109 41.5326 33.2038C41.5326 32.8968 41.6862 32.1291 41.6862 30.9009V21.8425L36.0055 34.5856H35.5449L29.8642 21.8425V30.2867C29.8642 31.3615 29.8642 32.2827 30.0177 32.5897C30.0177 33.0503 30.3248 33.3574 30.6318 33.6644C30.9389 33.9715 31.553 34.125 32.1672 34.125V34.5856H27.1006V34.125C27.7147 34.125 28.1753 33.9715 28.6359 33.6644C29.0965 33.3574 29.25 33.0503 29.4036 32.5897C29.5571 32.1291 29.5571 31.3615 29.5571 30.1332V23.8384C29.5571 22.7636 29.5571 21.996 29.4036 21.6889C29.4036 21.3819 29.25 21.0748 28.943 21.0748C28.7894 20.9213 28.3288 20.9213 27.5612 20.9213H27.1006V20.3071H31.3995L36.6196 32.1291Z" fill="#121212"/>
<path d="M47.0596 29.0586C47.0596 27.3698 47.6737 25.988 48.7484 24.9133C49.8232 23.8385 51.3585 23.3779 53.0473 23.3779C54.7362 23.3779 56.118 23.8385 57.3462 24.9133C58.421 25.988 59.0351 27.3698 59.0351 29.0586C59.0351 30.7475 58.421 32.1293 57.3462 33.204C56.2715 34.2787 54.7362 34.7393 53.0473 34.7393C51.3585 34.7393 49.8232 34.2787 48.7484 33.204C47.6737 32.1293 47.0596 30.7475 47.0596 29.0586ZM48.902 29.0586C48.902 30.901 49.209 32.1293 49.9767 33.0505C50.7443 33.9717 51.6655 34.4323 53.2009 34.4323C54.4291 34.4323 55.3503 33.9717 56.118 33.0505C56.8856 32.1293 57.1927 30.901 57.1927 29.0586C57.1927 27.3698 56.8856 25.988 56.118 25.0668C55.3503 24.1456 54.4291 23.685 53.0473 23.685C51.6655 23.685 50.7443 24.1456 49.9767 25.0668C49.209 25.988 48.902 27.3698 48.902 29.0586Z" fill="#121212"/>
<path d="M215.638 29.0586C215.638 27.3698 216.252 25.988 217.327 24.9133C218.402 23.8385 219.937 23.3779 221.626 23.3779C223.315 23.3779 224.697 23.8385 225.925 24.9133C227 25.988 227.614 27.3698 227.614 29.0586C227.614 30.7475 227 32.1293 225.925 33.204C224.85 34.2787 223.315 34.7393 221.626 34.7393C219.937 34.7393 218.402 34.2787 217.327 33.204C216.252 32.1293 215.638 30.7475 215.638 29.0586ZM217.481 29.0586C217.481 30.901 217.788 32.1293 218.555 33.0505C219.323 33.9717 220.244 34.4323 221.779 34.4323C223.008 34.4323 223.929 33.9717 224.697 33.0505C225.464 32.1293 225.771 30.901 225.771 29.0586C225.771 27.3698 225.464 25.988 224.697 25.0668C223.929 24.1456 223.008 23.685 221.626 23.685C220.244 23.685 219.323 24.1456 218.555 25.0668C217.788 25.988 217.481 27.3698 217.481 29.0586Z" fill="#121212"/>
<path d="M71.9319 34.5856H69.0148C68.5542 34.2785 67.633 33.2038 66.5583 31.6685C66.2512 31.2079 65.7906 30.7473 65.4835 30.2867C65.1765 29.8261 64.8694 29.519 64.7159 29.519C64.5623 29.3655 64.4088 29.3655 64.1017 29.3655H63.6411V31.822C63.6411 32.7432 63.6411 33.2038 63.6411 33.5109C63.6411 33.8179 63.7947 33.9714 63.9482 34.125C64.1017 34.2785 64.4088 34.2785 65.0229 34.2785H65.4835V34.5856H60.2634V34.2785H60.5705C61.0311 34.2785 61.3382 34.2785 61.4917 34.125C61.6452 33.9714 61.7988 33.8179 61.7988 33.5109C61.7988 33.2038 61.7988 32.7432 61.7988 31.822V26.2948C61.7988 25.3736 61.7988 24.913 61.7988 24.606C61.7988 24.2989 61.6452 24.1454 61.4917 24.1454C61.3382 23.9918 60.8776 23.9918 60.417 23.9918H60.2634V23.5312H61.7988C62.8735 23.5312 63.6411 23.5312 64.2553 23.5312C65.33 23.5312 66.0977 23.6848 66.8653 23.8383C67.4794 23.9918 68.0936 24.2989 68.4006 24.7595C68.8612 25.2201 69.0148 25.6807 69.0148 26.2948C69.0148 27.0625 68.7077 27.6766 68.2471 28.1372C67.7865 28.5978 67.0188 28.9049 65.9441 29.0584C66.4047 29.2119 67.1724 30.1331 68.0936 31.5149C68.8612 32.5897 69.6289 33.3573 70.0895 33.6644C70.5501 33.9714 71.1642 34.125 71.7783 34.2785V34.5856H71.9319ZM63.7947 28.9049C64.2553 28.9049 64.5623 28.9049 65.0229 28.9049C65.4835 28.9049 65.7906 28.7513 66.0977 28.7513C66.4047 28.5978 66.7118 28.4443 66.8653 28.2908C67.0189 28.1372 67.1724 27.8302 67.3259 27.5231C67.4794 27.216 67.4794 26.909 67.4794 26.4484C67.4794 25.6807 67.3259 25.0666 66.8653 24.606C66.5583 24.1454 65.6371 23.8383 64.4088 23.8383C64.2553 23.8383 63.9482 23.8383 63.7947 23.8383V28.9049Z" fill="#121212"/>
<path d="M79.909 29.7554H84.6685V30.0625C84.2079 30.0625 83.7473 30.0625 83.5937 30.216C83.4402 30.3696 83.2867 30.5231 83.2867 30.6766C83.2867 30.9837 83.1331 31.4443 83.1331 32.519V33.7473C82.9796 33.7473 82.8261 33.7473 82.8261 33.7473C82.3655 33.7473 81.9049 33.9008 81.1372 34.0543C80.216 34.3614 79.2948 34.5149 78.5272 34.5149C76.9918 34.5149 75.6101 34.0543 74.5353 32.9796C73.4606 31.9049 73 30.6766 73 28.9878C73 27.4524 73.4606 26.0706 74.5353 24.8424C75.4565 23.6141 76.8383 23 78.5272 23C80.0625 23 81.2907 23.4606 82.2119 24.6889C82.519 24.5353 82.6725 24.0747 82.6725 23.7677H82.9796V27.4524H82.6725C82.519 26.3777 82.0584 25.4565 81.4443 24.8424C80.6766 24.2283 79.909 23.9212 78.8342 23.9212C77.7595 23.9212 76.8383 24.2283 76.0706 24.9959C75.303 25.61 74.9959 26.9918 74.9959 28.9878C74.9959 30.9837 75.303 32.3655 76.0706 33.1331C76.8383 33.9008 77.7595 34.3614 78.8342 34.3614C79.4484 34.3614 79.909 34.2079 80.3696 34.0543C80.8301 33.7473 81.1372 33.4402 81.2907 33.1331C81.4443 32.8261 81.5978 32.3655 81.5978 31.9049C81.5978 31.2907 81.5978 30.9837 81.4443 30.6766C81.2907 30.5231 81.2907 30.3696 81.1372 30.216C80.9837 30.216 80.6766 30.0625 80.216 30.0625H79.909V29.7554Z" fill="#121212"/>
<path d="M92.3518 30.5937H88.2064L87.8993 31.3614C87.4387 32.4361 87.2852 33.0503 87.2852 33.3573C87.2852 33.6644 87.4387 33.9714 87.5923 34.125C87.7458 34.2785 88.0529 34.432 88.5135 34.432V34.7391H85.1357V34.2785C85.5963 34.125 86.0569 33.9714 86.2105 33.8179C86.5175 33.5109 86.6711 33.0503 87.1317 32.1291C87.1317 31.9755 87.2852 31.6685 87.5923 31.2079L90.8164 23.5312H91.1235L94.6548 32.1291L95.1154 33.2038C95.2689 33.5109 95.4224 33.6644 95.5759 33.8179C95.7295 33.9714 96.0365 34.125 96.4971 34.125V34.432H92.1982V34.2785C92.6588 34.2785 93.1194 34.2785 93.273 34.125C93.4265 33.9714 93.58 33.8179 93.58 33.6644C93.58 33.5109 93.4265 33.2038 93.273 32.5897L92.3518 30.5937ZM92.1982 30.1331L90.3558 25.5272L88.5135 30.1331H92.1982Z" fill="#121212"/>
<path d="M107.705 34.8926L99.8748 24.606V32.2826C99.8748 32.8967 99.8748 33.3573 100.028 33.5109C100.028 33.6644 100.335 33.8179 100.489 34.125C100.796 34.2785 101.257 34.432 101.871 34.432V34.7391H97.7253V34.2785C98.1859 34.2785 98.6465 34.125 98.9536 33.9714C99.2607 33.8179 99.4142 33.6644 99.4142 33.3573C99.4142 33.2038 99.4142 32.7432 99.4142 32.1291V26.2948C99.4142 25.5272 99.4142 24.913 99.2607 24.606C99.1071 24.2989 99.1071 24.1454 98.9536 23.9918C98.8001 23.8383 98.3395 23.8383 97.8789 23.8383V23.5312H101.103L107.551 32.1291V25.6807C107.551 25.2201 107.551 24.913 107.398 24.606C107.244 24.4524 107.091 24.2989 106.784 24.1454C106.477 23.9918 106.17 23.9918 105.709 23.9918V23.5312H109.701V23.8383C109.24 23.8383 108.933 23.9918 108.626 24.1454C108.473 24.4524 108.319 24.606 108.166 24.7595C108.166 24.913 108.012 25.2201 108.012 25.8342V34.8926H107.705Z" fill="#121212"/>
<path d="M128.432 29.2119H128.893V34.2785H128.432C128.278 33.6644 128.125 33.2038 127.818 32.7432C126.59 34.125 124.901 34.8926 123.058 34.8926C121.062 34.8926 119.374 34.2785 117.992 32.8967C116.764 31.6685 115.996 29.8261 115.996 27.6766C115.996 26.2948 116.303 24.913 116.917 23.6848C117.531 22.4565 118.299 21.5353 119.374 20.9212C120.448 20.3071 121.677 20 122.905 20C123.98 20 124.901 20.1535 125.822 20.6141C126.743 21.0747 127.357 21.5353 127.818 21.9959C128.125 21.3818 128.278 20.7677 128.432 20.1535H128.893L129.046 25.5272H128.432C128.125 23.6848 127.511 22.303 126.436 21.5353C125.515 20.7677 124.44 20.4606 123.212 20.4606C121.677 20.4606 120.602 21.0747 119.681 22.303C118.759 23.5312 118.299 25.2201 118.299 27.5231C118.299 29.6725 118.759 31.3614 119.681 32.4361C120.602 33.5108 121.83 34.125 123.212 34.125C123.98 34.125 124.747 33.9714 125.515 33.5108C126.283 33.2038 126.897 32.4361 127.357 31.6685C128.125 30.9008 128.432 30.1331 128.432 29.2119Z" fill="#121212"/>
<path d="M140.561 29.0584H134.88V31.6685C134.88 32.5897 134.88 33.0503 134.88 33.3573C134.88 33.6644 135.034 33.8179 135.187 33.9714C135.341 34.125 135.648 34.125 136.262 34.125H136.569V34.432H131.502V34.125H131.81C132.27 34.125 132.577 34.125 132.731 33.9714C133.038 33.8179 133.191 33.6644 133.191 33.5109C133.191 33.2038 133.191 32.7432 133.191 31.822V26.2948C133.191 25.3736 133.191 24.913 133.191 24.606C133.191 24.2989 133.038 24.1454 132.884 24.1454C132.731 23.9918 132.424 23.9918 131.81 23.9918H131.502V23.5312H136.415V23.8383H136.262C135.648 23.8383 135.341 23.8383 135.187 23.9918C135.034 24.1454 134.88 24.2989 134.88 24.4524C134.88 24.7595 134.727 25.2201 134.727 26.1413V28.2908H140.407V26.2948C140.407 25.3736 140.407 24.913 140.407 24.606C140.407 24.2989 140.254 24.1454 140.1 24.1454C139.947 23.9918 139.64 23.9918 139.026 23.9918H138.718V23.5312H143.785V23.8383H143.631C143.017 23.8383 142.71 23.8383 142.557 23.9918C142.403 24.1454 142.25 24.2989 142.25 24.606C142.25 24.913 142.096 25.3736 142.096 26.2948V31.6685C142.096 32.5897 142.096 33.0503 142.096 33.3573C142.096 33.6644 142.25 33.8179 142.403 33.9714C142.557 34.125 142.864 34.125 143.478 34.125H143.785V34.432H138.872V34.125H139.179C139.64 34.125 139.947 34.125 140.1 33.9714C140.254 33.8179 140.407 33.6644 140.407 33.3573C140.407 33.0503 140.407 32.5897 140.407 31.6685V29.0584H140.561Z" fill="#121212"/>
<path d="M152.076 30.4404H147.931L147.623 31.2081C147.163 32.2828 147.009 32.8969 147.009 33.204C147.009 33.5111 147.163 33.8181 147.316 33.9717C147.47 34.1252 147.777 34.2787 148.238 34.2787V34.5858H144.86V34.1252C145.32 34.1252 145.781 33.8181 145.935 33.6646C146.242 33.3575 146.395 32.8969 146.856 31.9757C146.856 31.8222 147.009 31.5151 147.316 31.0545L150.541 23.3779H150.848L154.532 32.1293L154.993 33.204C155.147 33.5111 155.3 33.6646 155.454 33.8181C155.607 33.9717 155.914 34.1252 156.375 34.1252V34.4323H152.076V34.1252C152.536 34.1252 152.997 34.1252 153.151 33.9717C153.304 33.8181 153.458 33.6646 153.458 33.5111C153.458 33.3575 153.304 33.0505 153.151 32.4363L152.076 30.4404ZM151.922 30.1334L150.08 25.5274L148.238 30.1334H151.922Z" fill="#121212"/>
<path d="M157.603 34.4323V30.901H158.064C158.524 33.204 159.599 34.2787 161.288 34.2787C162.055 34.2787 162.67 34.1252 163.13 33.6646C163.591 33.204 163.744 32.7434 163.744 32.1293C163.744 31.5151 163.591 31.0545 163.13 30.7475C162.823 30.4404 162.055 29.9798 161.134 29.5192C160.213 29.2122 159.599 28.7516 159.138 28.598C158.678 28.291 158.371 27.9839 158.064 27.5233C157.757 27.0627 157.757 26.6021 157.757 26.1415C157.757 25.3739 158.064 24.7597 158.524 24.1456C159.138 23.685 159.752 23.3779 160.52 23.3779C160.981 23.3779 161.441 23.3779 161.902 23.5315C162.363 23.685 162.67 23.9921 163.13 24.4527C163.437 24.1456 163.591 23.8385 163.591 23.5315H163.898V26.4486H163.591C163.437 25.6809 162.977 24.9133 162.516 24.4527C162.055 23.9921 161.441 23.685 160.674 23.685C160.06 23.685 159.599 23.8385 159.292 24.1456C158.985 24.4527 158.831 24.9133 158.831 25.3739C158.831 25.8344 158.985 26.295 159.445 26.6021C159.752 26.9092 160.52 27.3698 161.441 27.8304C162.363 28.291 163.13 28.598 163.437 28.9051C163.898 29.2122 164.205 29.5192 164.512 29.9798C164.819 30.4404 164.973 30.901 164.973 31.5151C164.973 32.4363 164.666 33.204 164.051 33.8181C163.437 34.4323 162.516 34.7393 161.595 34.7393C160.367 34.7393 159.445 34.2787 158.524 33.3575C158.371 33.6646 158.217 33.9717 158.064 34.4323H157.603Z" fill="#121212"/>
<path d="M175.72 31.0543H176.027L175.72 34.432H166.815V34.125H166.968C167.583 34.125 167.89 34.125 168.043 33.9714C168.197 33.8179 168.35 33.6644 168.35 33.3573C168.35 33.2038 168.35 32.5897 168.35 31.6685V26.2948C168.35 25.5272 168.35 24.913 168.35 24.606C168.35 24.2989 168.197 24.1454 168.043 23.9918C167.89 23.8383 167.583 23.8383 166.968 23.8383V23.5312H174.799L175.106 26.2948H174.799C174.645 25.5272 174.492 25.0666 174.185 24.606C173.877 24.2989 173.57 24.1454 173.263 23.9918C172.956 23.8383 172.342 23.8383 171.574 23.8383H170.039V28.4443H171.267C171.728 28.4443 172.189 28.4443 172.342 28.2908C172.496 28.1372 172.649 27.9837 172.803 27.8302C172.803 27.6766 172.956 27.216 172.956 26.7554H173.263V30.4402H172.956C172.956 29.8261 172.956 29.3655 172.803 29.2119C172.649 29.0584 172.496 28.9049 172.342 28.7513C172.189 28.7513 171.882 28.5978 171.421 28.5978H170.193V31.2079C170.193 32.4361 170.346 33.2038 170.5 33.5109C170.653 33.8179 171.114 33.8179 171.882 33.8179H172.649C173.263 33.8179 173.724 33.8179 174.031 33.6644C174.338 33.5109 174.799 33.2038 175.106 32.7432C175.259 32.5897 175.566 31.9755 175.72 31.0543Z" fill="#121212"/>
<path d="M190.152 25.5268H194.911V26.1409C194.297 26.2944 193.837 26.6015 193.376 27.0621C192.915 27.5227 192.455 28.2904 191.994 29.3651C191.534 30.2863 191.226 31.0539 190.919 31.361C191.687 32.4357 192.301 33.2034 192.762 33.5105C193.222 33.8175 193.683 33.9711 194.144 33.9711C194.911 33.9711 195.372 33.664 195.679 33.0499H196.139C195.986 33.664 195.679 34.1246 195.218 34.5852C194.758 34.8922 194.144 35.1993 193.529 35.1993C192.148 35.1993 190.766 34.4316 189.691 33.0499C188.463 34.4316 187.081 35.1993 185.546 35.1993C184.778 35.1993 184.164 35.0458 183.55 34.7387C182.936 34.4316 182.322 33.9711 182.015 33.3569C181.554 32.7428 181.4 31.9751 181.4 31.2075C181.4 30.2863 181.707 29.5186 182.168 28.9045C182.629 28.2904 183.703 27.5227 185.085 26.6015C184.164 25.3732 183.857 24.2985 183.857 23.3773C183.857 22.6097 184.164 21.9955 184.778 21.3814C185.392 20.7673 186.16 20.4602 186.928 20.4602C187.695 20.4602 188.463 20.6137 189.077 21.0743C189.691 21.5349 189.998 22.1491 189.998 22.7632C189.998 23.8379 188.923 24.9126 186.774 25.9874C188.156 27.8298 189.384 29.5186 190.459 31.0539C190.919 30.4398 191.226 29.8257 191.38 29.2115C191.687 28.5974 191.687 28.1368 191.687 27.6762C191.687 26.9086 191.073 26.2944 189.998 26.2944V25.5268H190.152ZM185.392 26.6015C184.625 27.0621 184.01 27.6762 183.55 28.2904C183.089 28.9045 182.936 29.5186 182.936 30.1327C182.936 31.0539 183.243 31.8216 184.01 32.7428C184.778 33.5105 185.546 33.9711 186.467 33.9711C187.542 33.9711 188.463 33.5105 189.384 32.4357C187.849 29.9792 186.467 28.1368 185.392 26.6015ZM186.467 25.3732C188.002 24.452 188.616 23.5309 188.616 22.6097C188.616 21.9955 188.463 21.5349 188.156 21.2279C187.849 20.9208 187.388 20.6137 186.928 20.6137C186.467 20.6137 186.006 20.7673 185.699 21.0743C185.392 21.3814 185.239 21.842 185.239 22.3026C185.239 23.0703 185.546 23.9914 186.467 25.3732Z" fill="#121212"/>
<path d="M212.414 29.2119H212.874V34.2785H212.414C212.26 33.6644 212.107 33.2038 211.8 32.7432C210.572 34.125 208.883 34.8926 207.04 34.8926C205.044 34.8926 203.355 34.2785 201.974 32.8967C200.745 31.5149 199.978 29.8261 199.978 27.6766C199.978 26.2948 200.285 24.913 200.899 23.6848C201.513 22.4565 202.281 21.5353 203.355 20.9212C204.43 20.3071 205.658 20 206.887 20C207.961 20 208.883 20.1535 209.804 20.6141C210.725 21.0747 211.339 21.5353 211.8 21.9959C212.107 21.3818 212.26 20.7677 212.414 20.1535H212.874L213.028 25.5272H212.567C212.26 23.6848 211.646 22.303 210.572 21.5353C209.65 20.7677 208.576 20.4606 207.347 20.4606C205.812 20.4606 204.737 21.0747 203.816 22.303C202.895 23.5312 202.434 25.2201 202.434 27.5231C202.434 29.6725 202.895 31.3614 203.816 32.4361C204.737 33.5108 205.966 34.125 207.347 34.125C208.115 34.125 208.883 33.9714 209.65 33.5108C210.418 33.2038 211.032 32.5896 211.493 31.6685C212.107 30.9008 212.414 30.1331 212.414 29.2119Z" fill="#121212"/>
<path d="M228.535 33.6645C228.535 33.3575 228.688 33.0504 228.842 32.7433C229.149 32.4363 229.303 32.4363 229.763 32.4363C230.07 32.4363 230.377 32.5898 230.684 32.7433C230.991 33.0504 230.991 33.2039 230.991 33.6645C230.991 33.9716 230.838 34.2787 230.684 34.5857C230.377 34.8928 230.224 34.8928 229.763 34.8928C229.456 34.8928 229.149 34.7393 228.842 34.5857C228.535 34.2787 228.535 33.9716 228.535 33.6645Z" fill="#121212"/>
</svg>
