<svg width="114" height="54" viewBox="0 0 114 54" fill="none" xmlns="http://www.w3.org/2000/svg">
<g clip-path="url(#clip0)">
<path d="M56.4983 52.8534V52.7984C56.5533 52.7297 56.6495 52.6885 56.732 52.7022C57.1306 52.6885 57.5154 52.6885 57.914 52.7022C57.9965 52.7022 58.0927 52.7297 58.1477 52.7984V52.8534H56.4983Z" fill="#D1EFFA"/>
<path d="M58.1477 52.7985C57.5979 52.7847 57.0481 52.7847 56.4983 52.7985C55.7423 52.7572 54.9864 52.7297 54.2304 52.6748C52.2237 52.5236 50.2307 52.2212 48.2789 51.7676C41.5302 50.2007 35.6062 47.0531 30.4381 42.4761C29.957 42.05 29.5035 41.6102 29.0361 41.1703C28.9262 41.0741 28.83 40.9367 28.775 40.7992C28.6925 40.6068 28.7337 40.4006 28.8712 40.2494C29.0086 40.0982 29.2286 40.0432 29.421 40.1257C29.5447 40.1807 29.6684 40.2357 29.7784 40.3044C34.7128 43.3557 40.1007 45.5824 45.7499 46.9019C47.6466 47.3418 49.5572 47.6854 51.4814 47.9328C54.2442 48.2764 57.0344 48.4001 59.8108 48.3039C61.309 48.2627 62.7935 48.1252 64.2779 47.9328C67.7416 47.4929 71.1641 46.7095 74.4766 45.6099C76.2222 45.0326 77.9265 44.3729 79.5896 43.6032C79.837 43.4657 80.1394 43.4245 80.4143 43.4932C80.8679 43.6032 81.1428 44.0705 81.0328 44.5241C81.0191 44.579 80.9916 44.6478 80.9641 44.7027C80.8542 44.9089 80.703 45.0876 80.5105 45.225C78.9299 46.4621 77.2255 47.5479 75.425 48.4551C72.03 50.1732 68.4013 51.3965 64.6627 52.0975C62.5048 52.4823 60.3331 52.716 58.1477 52.7985Z" fill="#00A8E1"/>
<path d="M37.7917 24.9376C38.1353 24.7314 38.4926 24.5115 38.8638 24.319C39.8259 23.8242 40.898 23.5768 41.9838 23.6318C42.7673 23.673 43.482 23.893 44.0318 24.4702C44.5541 25.0063 44.7466 25.666 44.8015 26.3808C44.8153 26.532 44.8153 26.6832 44.8153 26.8481V33.9679C44.8153 34.5865 44.7328 34.6689 44.1143 34.6689H42.4374C42.3275 34.6689 42.2175 34.6689 42.1075 34.6552C41.9426 34.6414 41.8052 34.504 41.7777 34.339C41.7502 34.1878 41.7502 34.0367 41.7502 33.8855V27.5216C41.7639 27.2604 41.7364 27.013 41.6677 26.7656C41.5577 26.3395 41.1729 26.0372 40.7331 26.0097C39.9221 25.9547 39.1112 26.1196 38.3689 26.4632C38.259 26.4907 38.1903 26.6007 38.204 26.7107V33.9404C38.204 34.0779 38.204 34.2016 38.1765 34.339C38.1765 34.5315 38.0253 34.6689 37.8329 34.6689C37.6267 34.6827 37.4206 34.6827 37.2006 34.6827H35.7437C35.2351 34.6827 35.1252 34.559 35.1252 34.0504V27.5491C35.1252 27.3154 35.1114 27.068 35.0564 26.8344C34.9602 26.367 34.5616 26.0372 34.0943 26.0097C33.2696 25.9547 32.4312 26.1196 31.6889 26.477C31.579 26.5045 31.5103 26.6282 31.5378 26.7381V34.0641C31.5378 34.5727 31.4278 34.6827 30.9192 34.6827H29.0774C28.5964 34.6827 28.4727 34.5452 28.4727 34.0779V24.539C28.4727 24.429 28.4864 24.319 28.5139 24.2091C28.5689 24.0442 28.7338 23.9479 28.8987 23.9479H30.6169C30.8643 23.9479 31.0155 24.0991 31.0979 24.3328C31.1666 24.5252 31.2079 24.7039 31.2766 24.9101C31.4141 24.9101 31.4965 24.8139 31.5927 24.7589C32.3487 24.2916 33.1459 23.893 34.0393 23.728C34.7266 23.5906 35.4138 23.5906 36.101 23.728C36.7471 23.8655 37.3243 24.2503 37.6954 24.8001C37.7229 24.8414 37.7504 24.8688 37.7779 24.8963C37.7642 24.9101 37.7779 24.9101 37.7917 24.9376Z" fill="#00A8E1"/>
<path d="M66.2846 31.7824C66.3671 31.5075 66.4496 31.2463 66.532 30.9714C67.1643 28.841 67.7966 26.7243 68.4288 24.5938L68.5113 24.3464C68.58 24.099 68.8137 23.9478 69.0611 23.9478H71.1503C71.6726 23.9478 71.7826 24.099 71.6039 24.5938L70.7792 26.7793C69.8583 29.1709 68.9374 31.5762 68.0165 33.9678C67.989 34.0503 67.9478 34.1328 67.9203 34.2152C67.8241 34.5039 67.5354 34.6963 67.233 34.6688C66.6283 34.6551 66.0235 34.6551 65.4187 34.6688C64.9926 34.6826 64.7452 34.4901 64.594 34.1053C64.2504 33.1981 63.893 32.2772 63.5494 31.37C62.7247 29.2121 61.8863 27.0542 61.0616 24.8825C60.9791 24.7175 60.9242 24.5251 60.8829 24.3464C60.8417 24.0715 60.9379 23.9341 61.2128 23.9341C61.9963 23.9203 62.7797 23.9341 63.5494 23.9341C63.8793 23.9341 64.0305 24.154 64.113 24.4426C64.2641 24.965 64.4153 25.501 64.5803 26.0233C65.1438 27.9338 65.6936 29.8581 66.2571 31.7687C66.2434 31.7824 66.2571 31.7824 66.2846 31.7824Z" fill="#232F3E"/>
<path d="M17.4766 25.4599C17.5728 25.4324 17.6553 25.3774 17.7102 25.295C17.9576 25.0476 18.2188 24.8139 18.4937 24.594C19.2084 24.0442 20.1018 23.7693 20.9953 23.838C21.3526 23.8518 21.4763 23.9617 21.5038 24.3053C21.5313 24.7727 21.5176 25.2537 21.5176 25.7211C21.5313 25.9135 21.5176 26.0922 21.4901 26.2846C21.4351 26.532 21.3389 26.6282 21.0915 26.6557C20.899 26.6695 20.7204 26.6557 20.5279 26.642C19.607 26.5595 18.7136 26.7382 17.8477 27.0268C17.6553 27.0955 17.6553 27.233 17.6553 27.3842V33.9817C17.6553 34.1054 17.6553 34.2154 17.6415 34.3391C17.6278 34.5178 17.4903 34.6552 17.3116 34.6552C17.2154 34.669 17.1055 34.669 17.0093 34.669H15.2224C15.1262 34.669 15.0163 34.669 14.92 34.6552C14.7414 34.6415 14.6039 34.4903 14.5902 34.3116C14.5764 34.2016 14.5764 34.0917 14.5764 33.9817V24.6352C14.5764 24.003 14.6451 23.9342 15.2774 23.9342H16.5969C16.9543 23.9342 17.1192 24.0579 17.2154 24.4016C17.3116 24.7452 17.3941 25.0888 17.4766 25.4599Z" fill="#00A8E1"/>
<path d="M81.7752 39.3972C82.6824 39.4247 83.5758 39.4797 84.4555 39.7133C84.7029 39.7821 84.9365 39.8645 85.1702 39.9745C85.4863 40.0982 85.6925 40.4006 85.7337 40.7305C85.7887 41.1153 85.8024 41.5139 85.775 41.9125C85.5963 44.2629 84.8678 46.5308 83.6582 48.5513C83.2184 49.2798 82.6824 49.9395 82.0638 50.5168C81.9401 50.6405 81.789 50.7367 81.624 50.7917C81.3629 50.8604 81.1979 50.723 81.1842 50.4618C81.1979 50.3244 81.2254 50.1869 81.2804 50.0495C81.7615 48.7575 82.2288 47.4792 82.5999 46.1459C82.8198 45.4175 82.971 44.6752 83.0672 43.9193C83.0947 43.6444 83.1085 43.3695 83.081 43.0946C83.0672 42.6273 82.7648 42.2287 82.3113 42.0912C81.8852 41.9538 81.4453 41.8713 80.9918 41.8438C79.7272 41.7888 78.4627 41.8438 77.2119 42.0087L75.5488 42.2149C75.3701 42.2287 75.2052 42.2149 75.109 42.05C75.0127 41.885 75.054 41.7201 75.1502 41.5552C75.2602 41.404 75.3976 41.2665 75.5625 41.1703C76.5797 40.4418 77.7205 40.002 78.93 39.7133C79.8647 39.5209 80.8131 39.4247 81.7752 39.3972Z" fill="#00A8E1"/>
<path d="M76.0161 29.3085V34.2566C75.9886 34.5315 75.8649 34.6552 75.59 34.669C74.8478 34.6827 74.1193 34.6827 73.3771 34.669C73.1022 34.669 72.9785 34.5315 72.951 34.2704C72.9373 34.1879 72.9373 34.0917 72.9373 34.0092V24.4978C72.951 24.0717 73.061 23.948 73.487 23.948H75.4663C75.8924 23.948 76.0161 24.0717 76.0161 24.4978V29.3085Z" fill="#232F3E"/>
<path d="M22.8372 29.2811V24.4017C22.851 24.0718 22.9747 23.9481 23.3046 23.9344C24.0193 23.9206 24.734 23.9206 25.4488 23.9344C25.7649 23.9344 25.8611 24.0306 25.8886 24.3467C25.9023 24.4704 25.9023 24.5804 25.9023 24.7041V33.8582C25.9023 34.0094 25.8886 34.1605 25.8748 34.3117C25.8611 34.4904 25.7237 34.6141 25.545 34.6279C25.4625 34.6416 25.3938 34.6416 25.3113 34.6416H23.4008C23.332 34.6416 23.2771 34.6416 23.2083 34.6279C23.0159 34.6141 22.851 34.4629 22.8372 34.2705C22.8235 34.1605 22.8235 34.0506 22.8235 33.9406C22.8372 32.4149 22.8372 30.848 22.8372 29.2811Z" fill="#00A8E1"/>
<path d="M24.4315 19.0136C24.6515 18.9999 24.8714 19.0411 25.0775 19.1098C25.8198 19.3572 26.2046 20.0032 26.1359 20.8417C26.0809 21.5564 25.5449 22.1337 24.8301 22.2437C24.5278 22.2986 24.2116 22.2986 23.9092 22.2437C23.1258 22.0925 22.5485 21.5152 22.6035 20.5256C22.6859 19.5497 23.332 19.0136 24.4315 19.0136Z" fill="#00A8E1"/>
<path d="M74.4904 19.0136C74.7652 18.9861 75.0401 19.0411 75.3013 19.151C75.8373 19.3572 76.2084 19.852 76.2359 20.4293C76.3459 21.6801 75.5075 22.3124 74.3941 22.2849C74.2429 22.2849 74.0918 22.2574 73.9406 22.2299C73.0884 22.0237 72.6485 21.364 72.731 20.4156C72.7997 19.6596 73.3908 19.0961 74.2017 19.0273C74.2979 19.0136 74.3941 18.9999 74.4904 19.0136Z" fill="#232F3E"/>
<path d="M12.5423 28.1538C12.4873 27.4391 12.2949 26.7381 12.0062 26.0921C11.4427 24.9101 10.5768 24.0441 9.25728 23.7417C7.74535 23.4119 6.38461 23.7417 5.14757 24.6626C5.0651 24.7451 4.96889 24.8138 4.85893 24.8688C4.83144 24.8551 4.80395 24.8413 4.80395 24.8276C4.76271 24.6901 4.73522 24.5527 4.69399 24.4152C4.58403 24.0716 4.44658 23.9479 4.07547 23.9479C3.66313 23.9479 3.23704 23.9617 2.82469 23.9479C2.50856 23.9342 2.21992 23.9754 2 24.2228C2 29.0335 2 33.858 2.01374 38.6549C2.19243 38.9435 2.46732 38.9985 2.78346 38.9848C3.27827 38.971 3.77309 38.9848 4.2679 38.9848C5.13382 38.9848 5.13382 38.9848 5.13382 38.1326V34.2153C5.13382 34.1191 5.09259 34.0091 5.1888 33.9267C5.87605 34.4627 6.71448 34.7926 7.58041 34.8751C8.78995 34.9988 9.88954 34.6964 10.8104 33.8717C11.4839 33.2532 11.9788 32.456 12.2399 31.5763C12.611 30.4492 12.6385 29.3084 12.5423 28.1538ZM9.25728 30.999C9.16106 31.4251 8.94115 31.81 8.62502 32.0986C8.26765 32.401 7.82781 32.5797 7.36049 32.5797C6.6595 32.6209 5.97226 32.4697 5.35374 32.1398C5.20255 32.0711 5.10634 31.9199 5.12008 31.755V29.2672C5.12008 28.4425 5.13382 27.6178 5.12008 26.7931C5.10634 26.6007 5.21629 26.4357 5.39498 26.367C6.15094 26.0096 6.9344 25.8447 7.75909 26.0096C8.33637 26.0921 8.83119 26.4632 9.06485 26.9993C9.27102 27.4391 9.39473 27.9202 9.42222 28.4012C9.50469 29.2809 9.50469 30.1606 9.25728 30.999Z" fill="#00A8E1"/>
<path d="M111.986 28.4563V28.5113C111.931 28.4563 111.904 28.3738 111.931 28.3051V28.1951C111.931 28.1951 111.931 28.1814 111.945 28.1814H111.931V28.0439H111.959C111.959 28.0302 111.945 28.0302 111.945 28.0164C111.917 27.7553 111.862 27.4941 111.794 27.2467C111.285 25.4324 110.144 24.2366 108.289 23.7693C107.423 23.5631 106.543 23.5356 105.664 23.6731C103.808 23.948 102.475 24.9376 101.829 26.6969C101.196 28.3738 101.21 30.2156 101.842 31.8925C102.392 33.4182 103.492 34.3803 105.072 34.7789C105.911 34.9851 106.791 35.0401 107.656 34.9164C110.543 34.5727 111.739 32.3873 111.931 30.4905H111.917V30.2981C111.904 30.2156 111.89 30.1469 111.972 30.0919V30.1194C111.972 30.1057 111.986 30.0782 112 30.0644V28.4838C112 28.47 111.986 28.47 111.986 28.4563ZM108.687 31.0678C108.605 31.3564 108.481 31.6176 108.302 31.865C108 32.2911 107.519 32.566 106.997 32.6072C106.736 32.6347 106.474 32.6347 106.213 32.5797C105.636 32.4698 105.155 32.0849 104.921 31.5489C104.715 31.1228 104.591 30.6555 104.55 30.1881C104.481 29.3772 104.468 28.5662 104.66 27.769C104.729 27.4529 104.866 27.1368 105.031 26.8619C105.334 26.3671 105.856 26.0509 106.433 26.0097C106.694 25.9822 106.956 25.9822 107.217 26.0372C107.766 26.1471 108.22 26.5045 108.467 27.0131C108.701 27.4941 108.839 28.0302 108.866 28.5662C108.88 28.8136 108.894 29.0611 108.88 29.3085C108.921 29.9132 108.852 30.5043 108.687 31.0678Z" fill="#232F3E"/>
<path d="M87.8917 19.1099H85.9812C85.4588 19.1099 85.3626 19.2061 85.3626 19.7284V24.1817C85.3626 24.2779 85.4039 24.3741 85.3351 24.4704C85.2114 24.4566 85.1427 24.3741 85.0465 24.3192C83.617 23.4807 82.1188 23.3295 80.6069 24.0305C79.5486 24.5253 78.8888 25.4187 78.4627 26.4771C78.0504 27.4942 77.9542 28.5663 77.9816 29.6522C77.9816 30.6693 78.2153 31.6727 78.6689 32.5798C79.1912 33.5832 79.9472 34.3529 81.0467 34.6828C82.5449 35.1501 83.9469 34.9164 85.2252 33.968C85.3214 33.9131 85.3764 33.8168 85.5001 33.7894C85.5688 33.9406 85.6238 34.1055 85.6513 34.2704C85.7063 34.4903 85.8987 34.6415 86.1323 34.6415H86.4622C86.957 34.6415 87.4381 34.6553 87.9192 34.6415C88.304 34.6415 88.414 34.5178 88.4277 34.1192V19.6322C88.414 19.2061 88.304 19.1099 87.8917 19.1099ZM85.3764 29.2261V31.7276C85.4039 31.8926 85.3077 32.0438 85.1565 32.1125C84.4967 32.4836 83.7407 32.6348 82.9985 32.5248C82.3663 32.4561 81.8165 32.0713 81.5278 31.5077C81.3079 31.0679 81.1842 30.6006 81.143 30.1195C81.033 29.2536 81.1017 28.3739 81.3079 27.5355C81.3766 27.3018 81.4591 27.0819 81.5828 26.862C81.8714 26.3259 82.4212 25.9823 83.026 25.9411C83.7545 25.8723 84.483 26.0098 85.1427 26.3122C85.3077 26.3671 85.4039 26.5321 85.3901 26.7108C85.3626 27.5629 85.3764 28.3876 85.3764 29.2261Z" fill="#232F3E"/>
<path d="M49.832 30.1744C50.8629 30.3668 51.9213 30.3805 52.9521 30.2156C53.5569 30.1331 54.1342 29.9545 54.6702 29.6658C55.2887 29.3084 55.7423 28.8136 55.9348 28.1264C56.4158 26.3945 55.6736 24.6489 53.873 24.0029C52.9934 23.7143 52.0587 23.6181 51.1378 23.7418C48.9661 23.9892 47.5504 25.185 46.9044 27.2605C46.4508 28.6762 46.5058 30.1194 46.8769 31.5489C47.358 33.3769 48.5675 34.4628 50.3956 34.8476C51.4402 35.0813 52.4985 35.04 53.5431 34.8751C54.0929 34.7789 54.6427 34.6414 55.165 34.4353C55.4812 34.3116 55.6461 34.1191 55.6324 33.7618C55.6186 33.4319 55.6324 33.0883 55.6324 32.7447C55.6324 32.3323 55.4674 32.2086 55.0688 32.3048C54.6702 32.401 54.2854 32.4835 53.8868 32.566C53.0346 32.7447 52.1549 32.7447 51.3027 32.5935C50.1344 32.3598 49.3785 31.3564 49.4472 30.1194C49.5709 30.1331 49.7083 30.1469 49.832 30.1744ZM49.4884 28.0714C49.5297 27.7415 49.6259 27.4254 49.7496 27.123C50.1619 26.1196 51.0278 25.776 51.9075 25.831C52.1549 25.8447 52.4023 25.8997 52.636 25.9959C52.9934 26.1471 53.227 26.477 53.2683 26.8619C53.3095 27.0955 53.2957 27.3429 53.227 27.5766C53.0621 28.0714 52.6635 28.2776 52.1824 28.3738C51.8938 28.4425 51.5914 28.47 51.289 28.4425C50.7529 28.4425 50.2031 28.4013 49.6671 28.3188C49.4609 28.2913 49.4609 28.2913 49.4884 28.0714Z" fill="#00A8E1"/>
<path d="M96.1935 30.3119C96.9907 30.2569 97.7879 30.1057 98.5027 29.7209C99.2312 29.3635 99.7397 28.69 99.8909 27.8928C99.9871 27.398 99.9871 26.8757 99.8772 26.3809C99.5885 25.1438 98.8051 24.3741 97.623 23.9755C96.9633 23.7693 96.2623 23.6869 95.575 23.7144C93.2659 23.7693 91.5066 24.9376 90.7918 27.2468C90.3108 28.7725 90.3795 30.3256 90.8468 31.8513C91.3279 33.4182 92.4275 34.3666 93.9944 34.7927C94.6679 34.9576 95.3689 35.0264 96.0561 34.9989C97.0595 34.9851 98.0628 34.7927 99.0112 34.4353C99.4098 34.2841 99.5061 34.1467 99.5061 33.7206V32.731C99.4923 32.3324 99.3274 32.1949 98.9288 32.2911C98.6264 32.3736 98.3377 32.4423 98.0354 32.5111C97.1145 32.731 96.1523 32.7722 95.2177 32.6073C94.283 32.4286 93.6508 31.8925 93.4033 30.9579C93.3346 30.683 93.2796 30.4081 93.2522 30.1195C93.3209 30.1195 93.3896 30.1195 93.4446 30.1469C94.3517 30.3119 95.2726 30.3806 96.1935 30.3119ZM93.3209 28.1127C93.4171 27.5767 93.5408 27.0544 93.8707 26.6145C94.3792 25.941 95.0802 25.7486 95.8774 25.8311C95.9461 25.8311 96.0011 25.8586 96.0698 25.8586C97.032 26.0097 97.2656 26.7795 97.087 27.5217C96.9495 28.0715 96.4959 28.2776 95.9874 28.3739C95.7125 28.4288 95.4238 28.4563 95.1352 28.4426C94.5717 28.4288 94.0219 28.3876 93.4721 28.3051C93.3484 28.2914 93.2934 28.2364 93.3209 28.1127Z" fill="#232F3E"/>
</g>
<defs>
<clipPath id="clip0">
<rect width="110" height="33.8536" fill="white" transform="translate(2 19)"/>
</clipPath>
</defs>
</svg>
