<svg width="103" height="54" viewBox="0 0 103 54" fill="none" xmlns="http://www.w3.org/2000/svg">
<path d="M10.425 34.4426C9.96964 34.8625 9.40038 35.0534 8.67932 35.0534H4.27704V30.4341H8.60342C9.36243 30.4341 9.96964 30.625 10.425 30.9686C10.8805 31.3122 11.1082 31.923 11.1082 32.7247C11.1082 33.4882 10.8805 34.0609 10.425 34.4426ZM4.27704 24.2496H8.56546C9.24858 24.2496 9.77989 24.4023 10.1594 24.7077C10.5389 25.0131 10.7287 25.5094 10.7287 26.2348C10.7287 26.6165 10.6528 26.9219 10.5389 27.151C10.425 27.4182 10.2353 27.6091 10.0455 27.7618C9.85579 27.9145 9.62808 28.029 9.36243 28.1054C9.09677 28.1817 8.83112 28.2199 8.60342 28.2199H4.27704V24.2496ZM11.4118 29.2125C11.8672 28.9071 12.2467 28.4871 12.4744 28.029C12.778 27.4564 12.9298 26.8456 12.9298 26.2348C12.9298 25.6239 12.8159 25.0513 12.6262 24.5168C12.3985 23.9824 12.1328 23.5624 11.7533 23.1807C11.3738 22.7989 10.9184 22.5317 10.3491 22.3408C9.81784 22.1499 9.21063 22.0354 8.52751 22.0354H2V37.2295H8.56546C9.28653 37.2295 9.96964 37.1149 10.5389 36.8859C11.1461 36.6568 11.6395 36.3132 12.0569 35.9315C12.4744 35.5115 12.778 35.0534 13.0057 34.4808C13.2334 33.9463 13.3472 33.3355 13.3472 32.6865C13.3472 31.8848 13.1575 31.1595 12.8159 30.4723C12.5123 29.976 12.0569 29.5179 11.4118 29.2125Z" fill="#242963"/>
<path d="M17.2562 30.2048C17.3701 29.8993 17.4839 29.5939 17.6737 29.3267C17.9014 28.9831 18.1671 28.6777 18.4707 28.4487C18.7743 28.2196 19.0779 28.0287 19.4194 27.9142C20.1405 27.647 20.8615 27.647 21.5447 27.9142C21.8862 28.0287 22.2278 28.2196 22.4934 28.4868C22.797 28.7159 23.0247 29.0213 23.2524 29.3649C23.4042 29.6321 23.556 29.8993 23.6699 30.2048H17.2562ZM24.4669 27.3034C23.9355 26.7307 23.3283 26.3108 22.6452 26.0054C21.2031 25.3946 19.6092 25.4327 18.2809 26.0436C17.5978 26.349 16.9906 26.8071 16.4972 27.3415C16.0039 27.876 15.5864 28.525 15.2828 29.2504C14.9792 29.9757 14.8274 30.7392 14.8274 31.5791C14.8274 32.419 14.9792 33.1825 15.2828 33.9078C15.5864 34.6332 16.0039 35.244 16.4972 35.7784C17.0285 36.3129 17.6357 36.7328 18.3189 37.0383C19.0399 37.3437 19.7989 37.4964 20.5959 37.4964C21.8862 37.4964 23.0247 37.1528 23.9735 36.5038C24.8084 35.893 25.4536 35.0531 25.871 33.9078L25.9469 33.7169H23.4801L23.4422 33.7933C23.1386 34.2896 22.835 34.6332 22.4555 34.9004C21.9621 35.244 21.317 35.3967 20.5959 35.3967C20.1784 35.3967 19.761 35.3203 19.3815 35.1676C19.002 35.0149 18.6225 34.7859 18.3189 34.5186C18.0152 34.2132 17.7116 33.8696 17.5219 33.4497C17.3321 33.1061 17.2183 32.7244 17.1424 32.2663H26.2505V32.0372C26.2505 31.0446 26.0987 30.1284 25.7951 29.3267C25.4156 28.5632 24.9982 27.876 24.4669 27.3034Z" fill="#242963"/>
<path d="M57.9392 25.6236C57.5977 25.6618 57.2561 25.7382 56.9146 25.8909C56.573 26.0054 56.2694 26.1963 55.9658 26.4253C55.8519 26.5017 55.7381 26.6162 55.6242 26.7307V25.8909H53.4231V37.2673H55.7001V30.701C55.7001 30.2048 55.776 29.7466 55.9658 29.3649C56.1555 29.0213 56.3832 28.7159 56.6489 28.4868C56.9525 28.2578 57.2941 28.0669 57.6736 27.9905C58.0531 27.876 58.5085 27.8378 58.9259 27.876H59.1916V25.6236L59.0018 25.5854C58.6603 25.5854 58.3187 25.5854 57.9392 25.6236Z" fill="#242963"/>
<path d="M70.2733 31.732C70.2733 32.2665 70.1974 32.7246 70.0456 33.1827C69.8938 33.6026 69.6661 33.9844 69.3625 34.2898C69.0589 34.5952 68.6794 34.8625 68.262 35.0152C67.8065 35.206 67.3132 35.2824 66.706 35.2824C66.1367 35.2824 65.6054 35.206 65.15 35.0152C64.6946 34.8243 64.353 34.5952 64.0115 34.2898C63.7079 33.9844 63.4802 33.6026 63.3284 33.1827C63.1766 32.7628 63.1007 32.2665 63.1007 31.732V22.0735H60.8616V31.732C60.8616 32.5719 61.0134 33.3736 61.279 34.0608C61.5447 34.7479 61.9621 35.3969 62.4555 35.8932C62.9868 36.3895 63.594 36.8094 64.3151 37.0767C65.0361 37.3439 65.8331 37.4966 66.706 37.4966C67.5409 37.4966 68.3378 37.3439 69.0589 37.0767C69.78 36.8094 70.3872 36.3895 70.9185 35.8932C71.4498 35.3969 71.8293 34.7861 72.1329 34.0608C72.3986 33.3736 72.5504 32.5719 72.5504 31.732V22.0735H70.2733V31.732Z" fill="#242963"/>
<path d="M83.3663 33.0298C83.1766 33.4879 82.9489 33.9078 82.6453 34.2514C82.3417 34.595 82.0001 34.8622 81.5826 35.0531C80.7477 35.4349 79.761 35.4349 78.9261 35.0531C78.5086 34.8622 78.1291 34.595 77.8255 34.2132C77.5219 33.8696 77.2563 33.4497 77.0665 32.9916C76.8768 32.5335 76.8009 32.0372 76.8009 31.5027C76.8009 30.9683 76.8768 30.472 77.0665 30.0139C77.2563 29.5558 77.5219 29.1358 77.8255 28.7922C78.1291 28.4487 78.5086 28.1814 78.9261 27.9905C79.3435 27.7997 79.761 27.6851 80.2544 27.6851C80.7098 27.6851 81.1652 27.7997 81.5826 27.9905C82.0001 28.1814 82.3417 28.4487 82.6453 28.7922C82.9489 29.1358 83.1766 29.5558 83.3663 30.0139C83.5561 30.472 83.632 30.9683 83.632 31.5027C83.632 32.0754 83.5561 32.5717 83.3663 33.0298ZM85.4916 29.2503C85.2259 28.525 84.8084 27.9142 84.3151 27.3415C83.8217 26.8071 83.2145 26.349 82.5314 26.0436C81.8483 25.7382 81.0893 25.5854 80.2923 25.5854C79.4574 25.5854 78.6604 25.8145 77.9773 26.1963C77.5219 26.4635 77.1045 26.8071 76.7629 27.1507V25.8527H74.5618V42.1157H76.8388V36.0075C77.1804 36.3511 77.5599 36.6565 78.0153 36.9237C78.6984 37.3055 79.4574 37.4964 80.2544 37.4964C81.0513 37.4964 81.8103 37.3437 82.4935 37.0383C83.1766 36.7328 83.7838 36.3129 84.2771 35.7403C84.7705 35.2058 85.15 34.5568 85.4536 33.8315C85.7193 33.1061 85.8711 32.3426 85.8711 31.5027C85.909 30.7392 85.7572 29.9757 85.4916 29.2503Z" fill="#242963"/>
<path d="M42.5692 30.2048C42.6831 29.8993 42.7969 29.5939 42.9867 29.3267C43.2144 28.9831 43.48 28.6777 43.7836 28.4487C44.0872 28.2196 44.3909 28.0287 44.7324 27.9142C45.4535 27.647 46.1745 27.647 46.8576 27.9142C47.1992 28.0287 47.5408 28.2196 47.8064 28.4868C48.11 28.7159 48.3377 29.0213 48.5654 29.3649C48.7172 29.6321 48.869 29.8993 48.9829 30.2048H42.5692ZM49.7799 27.3034C49.2485 26.7307 48.6413 26.3108 47.9582 26.0054C46.5161 25.3946 44.9222 25.4327 43.5939 26.0436C42.9108 26.349 42.3036 26.8071 41.8102 27.3415C41.3169 27.876 40.8994 28.525 40.5958 29.2504C40.2922 29.9757 40.1404 30.7392 40.1404 31.5791C40.1404 32.419 40.2922 33.1825 40.5958 33.9078C40.8994 34.6332 41.3169 35.244 41.8102 35.7784C42.3415 36.3129 42.9487 36.7328 43.6318 37.0383C44.3529 37.3437 45.1119 37.4964 45.9089 37.4964C47.1992 37.4964 48.3377 37.1528 49.2865 36.5038C50.1214 35.893 50.7666 35.0531 51.184 33.9078L51.2599 33.7169H48.7931L48.7552 33.7933C48.4516 34.2896 48.148 34.6332 47.7685 34.9004C47.2751 35.244 46.6299 35.3967 45.9089 35.3967C45.4914 35.3967 45.074 35.3203 44.6945 35.1676C44.315 35.0149 43.9354 34.7859 43.6318 34.5186C43.3282 34.2132 43.0246 33.8696 42.8349 33.4497C42.6451 33.1061 42.5313 32.7244 42.4554 32.2663H51.5635V32.0372C51.5635 31.0446 51.4117 30.1284 51.1081 29.3267C50.7286 28.5632 50.3112 27.876 49.7799 27.3034Z" fill="#242963"/>
<path d="M38.4327 35.0914C38.167 35.0151 37.9393 34.9387 37.7116 34.786C37.5219 34.6333 37.3701 34.4043 37.2562 34.137C37.1424 33.8698 37.0665 33.488 37.0665 33.0299V27.9525H38.964V25.9292H37.0665V23.1423H34.8274V25.9292H30.8805V23.1423H28.6414V25.9292H26.7439V27.9525H28.6414V33.0299C28.6414 33.7553 28.7553 34.4043 28.983 34.9387C29.2107 35.5114 29.5143 35.9695 29.9318 36.3512C30.3492 36.733 30.8046 37.0002 31.3739 37.1529C31.7534 37.2675 32.1329 37.3056 32.5503 37.3056C32.7401 37.3056 32.9678 37.3056 33.1955 37.2675L33.4232 37.2293V35.0914L33.1196 35.1296C32.816 35.1678 32.5124 35.1296 32.2088 35.0914C31.9431 35.0151 31.7154 34.9387 31.4877 34.786C31.298 34.6333 31.1462 34.4043 31.0323 34.137C30.9185 33.8698 30.8426 33.488 30.8426 33.0299V27.9525H34.7894V33.0299C34.7894 33.7553 34.9033 34.4043 35.131 34.9387C35.3587 35.5114 35.6623 35.9695 36.0798 36.3512C36.4972 36.733 36.9526 37.0002 37.5219 37.1529C37.9014 37.2675 38.2809 37.3056 38.6984 37.3056C38.8881 37.3056 39.1158 37.3056 39.3435 37.2675L39.5712 37.2293V35.0914L39.3056 35.1296C39.002 35.1678 38.6984 35.1296 38.4327 35.0914Z" fill="#242963"/>
<path d="M90.2353 22.9898C90.2353 23.0662 90.1973 23.1425 90.1973 23.2189C89.9696 25.8149 90.0455 27.8382 91.2599 29.0598C92.5123 30.3196 96.3074 29.8997 97.6736 26.6929C98.129 25.624 97.8254 24.2115 97.2182 22.9517C96.2694 23.8679 95.2448 24.4787 94.1821 24.7078C93.9924 24.7459 93.8026 24.7841 93.6508 24.7841C92.3605 24.8605 91.222 24.1733 90.2353 22.9898Z" fill="#33A8FF"/>
<path d="M97.2181 22.9514C99.0397 21.1953 100.634 18.2939 101.582 14.5145C103.252 7.91004 99.3434 3.32892 94.1441 3.02351C87.6166 2.60357 87.3889 7.87186 87.3889 13.8655C87.3889 17.4922 88.5274 20.9662 90.2352 22.9896C90.387 22.0734 90.8804 21.2335 91.6014 20.6608C91.8671 20.4318 92.1327 20.2791 92.4363 20.1264C92.8159 19.9737 93.2333 19.8591 93.6508 19.8591C93.6887 19.8591 93.7646 19.8591 93.8026 19.8591C93.9923 19.8591 94.22 19.8973 94.4098 19.9737C94.4857 20.0118 94.5616 20.05 94.6375 20.0882C94.6754 20.0882 94.7134 20.1264 94.7513 20.1264C95.6242 20.5845 96.573 21.6916 97.2181 22.9514Z" fill="#FF6A4C"/>
<path d="M94.6376 20.1265C94.5617 20.0883 94.4858 20.0502 94.4099 20.012C94.2202 19.9356 94.0304 19.8975 93.8027 19.8975C93.7647 19.8975 93.6888 19.8975 93.6509 19.8975C93.2334 19.8975 92.816 19.9738 92.4365 20.1647C92.1329 20.2792 91.8293 20.4701 91.6016 20.6992C90.9185 21.2718 90.3872 22.1117 90.2354 23.0279C91.2221 24.2114 92.3985 24.8985 93.6509 24.8222C93.8406 24.8222 93.9924 24.784 94.1822 24.7458C95.2448 24.5168 96.2695 23.9059 97.2182 22.9897C96.5731 21.7299 95.6243 20.6228 94.7515 20.2029C94.7135 20.1265 94.6756 20.1265 94.6376 20.1265Z" fill="#242963"/>
</svg>
