<svg width="56" height="54" viewBox="0 0 56 54" fill="none" xmlns="http://www.w3.org/2000/svg">
<g clip-path="url(#clip0)">
<path d="M11.4276 38.9644H12.253L13.6562 41.2892L15.0457 38.9644H15.8711L16.0912 43.8893H15.2383L15.0732 40.4776L13.8488 42.4861H13.4224L12.1843 40.5189L12.0329 43.8893H11.2075L11.4276 38.9644Z" fill="black"/>
<path d="M20.7135 41.867L20.0944 39.9548L19.4616 41.867H20.7135ZM19.6542 38.9644H20.5621L22.3368 43.8893H21.3463L20.9336 42.6374H19.1865L18.7738 43.8893H17.8521L19.6542 38.9644Z" fill="black"/>
<path d="M25.996 41.1792C26.2161 41.1792 26.3949 41.1104 26.5187 40.9728C26.6425 40.8353 26.7113 40.6702 26.7113 40.4638C26.7113 40.2575 26.6425 40.0786 26.5187 39.9411C26.3812 39.8035 26.2161 39.7485 26.0097 39.7485H25.0743V41.1792H25.996ZM24.2076 38.9644H25.9822C26.2711 38.9644 26.5325 39.0056 26.7388 39.1019C26.9452 39.1982 27.1103 39.3083 27.2341 39.4596C27.3579 39.6109 27.4542 39.7622 27.5092 39.9411C27.5643 40.1199 27.5918 40.285 27.5918 40.4363C27.5918 40.739 27.523 41.0279 27.3992 41.2617C27.2754 41.4956 27.069 41.6882 26.8076 41.8395L27.8944 43.903H26.8902L25.941 41.9633H25.0468V43.903H24.1938V38.9644H24.2076Z" fill="black"/>
<path d="M31.6776 41.1792C31.8977 41.1792 32.0765 41.1104 32.2003 40.9728C32.3241 40.8353 32.3929 40.6702 32.3929 40.4638C32.3929 40.2575 32.3241 40.0786 32.2003 39.9411C32.0628 39.8035 31.8977 39.7485 31.6913 39.7485H30.7559V41.1792H31.6776ZM29.903 38.9644H31.6776C31.9665 38.9644 32.2278 39.0056 32.4342 39.1019C32.6405 39.1982 32.8056 39.3083 32.9294 39.4596C33.0532 39.6109 33.1495 39.7622 33.2046 39.9411C33.2596 40.1199 33.2871 40.285 33.2871 40.4363C33.2871 40.739 33.2183 41.0279 33.0945 41.2617C32.9707 41.4956 32.7644 41.6882 32.503 41.8395L33.5898 43.903H32.5855L31.6363 41.9633H30.7559V43.903H29.903V38.9644V38.9644Z" fill="black"/>
<path d="M36.685 38.9644H35.8046V43.8893H36.685V38.9644Z" fill="black"/>
<path d="M41.266 43.1463C41.4998 43.1463 41.7062 43.1051 41.8988 43.0088C42.0914 42.9125 42.2427 42.7887 42.3803 42.6236C42.5178 42.4585 42.6141 42.2797 42.6829 42.0596C42.7517 41.8532 42.793 41.6331 42.793 41.3992C42.793 41.1654 42.7517 40.9453 42.6829 40.7252C42.6141 40.5188 42.5178 40.3262 42.3803 40.1749C42.2427 40.0098 42.0914 39.886 41.8988 39.8035C41.7062 39.7072 41.4998 39.6659 41.266 39.6659C41.0321 39.6659 40.8257 39.7072 40.6332 39.8035C40.4543 39.8998 40.2892 40.0236 40.1654 40.1749C40.0279 40.3262 39.9316 40.5188 39.8628 40.7252C39.794 40.9315 39.7527 41.1516 39.7527 41.3992C39.7527 41.6331 39.794 41.8532 39.8628 42.0596C39.9316 42.2659 40.0279 42.4585 40.1654 42.6236C40.303 42.7887 40.4543 42.9125 40.6332 43.0088C40.8257 43.0913 41.0321 43.1463 41.266 43.1463ZM41.266 44.013C40.922 44.013 40.6056 43.9442 40.303 43.8067C40.0141 43.6691 39.7527 43.4903 39.5326 43.2564C39.3125 43.0225 39.1337 42.7474 39.0099 42.431C38.886 42.1146 38.8173 41.7844 38.8173 41.413C38.8173 41.0553 38.886 40.7114 39.0099 40.395C39.1337 40.0786 39.3125 39.8035 39.5326 39.5696C39.7527 39.3357 40.0003 39.1569 40.303 39.0193C40.6056 38.8818 40.922 38.813 41.266 38.813C41.6099 38.813 41.9263 38.8818 42.2289 39.0193C42.5178 39.1569 42.7792 39.3357 42.9993 39.5696C43.2194 39.8035 43.3983 40.0786 43.5221 40.395C43.6459 40.7114 43.7147 41.0416 43.7147 41.413C43.7147 41.7707 43.6459 42.1146 43.5221 42.431C43.3983 42.7474 43.2194 43.0225 42.9993 43.2564C42.7792 43.4903 42.5178 43.6829 42.2289 43.8067C41.9263 43.9442 41.6099 44.013 41.266 44.013Z" fill="black"/>
<path d="M46.4523 39.776H44.8702V38.9644H48.9285V39.776H47.3465V43.8893H46.4523V39.776Z" fill="black"/>
<path d="M52.0238 39.776H50.428V38.9644H54.5V39.776H52.9042V43.8893H52.0238V39.776Z" fill="black"/>
<path d="M35.1718 34.0395H43.0819L29.8479 2.509L23.2034 5.72808L27.8257 16.706L25.6796 21.8097L17.398 2L10.6848 5.06775L16.0774 17.724L16.0499 17.779C12.7208 25.7717 8.64875 27.959 8.24981 28.1103C7.30059 28.4955 6.28259 28.7156 5.20957 28.7156C4.8794 28.7156 4.563 28.7019 4.24659 28.6606L1 35.6215C2.07303 36.2405 3.28362 36.5982 4.563 36.5982C6.18629 36.5982 7.67202 36.0342 8.91013 35.0987L8.89638 35.1263C8.89638 35.1263 11.9641 33.5717 15.252 25.0563C15.252 25.0426 16.4626 22.3325 17.1092 20.5991L17.1779 20.4065L22.9558 34.0532H30.8521L26.7801 24.451L28.94 19.3473L35.1718 34.0395Z" fill="#A11D2B"/>
</g>
<defs>
<clipPath id="clip0">
<rect width="53.5" height="42.0131" fill="white" transform="translate(1 2)"/>
</clipPath>
</defs>
</svg>
