<svg width="1688" height="243" viewBox="0 0 1688 243" fill="none" xmlns="http://www.w3.org/2000/svg">
<path d="M197.2 121.12C197.2 127.73 195.23 138.68 181.72 138.68H173.24V104.36H180.14C195.82 104.35 197.2 116.68 197.2 121.12ZM242.34 121.51C242.34 188.25 188.24 242.35 121.51 242.35C54.7699 242.35 0.669922 188.25 0.669922 121.51C0.669922 54.77 54.7699 0.669998 121.51 0.669998C188.24 0.679998 242.34 54.78 242.34 121.51ZM65.5399 104.35H85.2699V86.3H24.1199V104.35H43.8399V156.72H65.5399V104.35ZM147.92 156.73V138.68H110.25V129.79L147.92 129.82V113H110.25V104.35L147.93 104.32V86.3H88.5599V156.72H147.92V156.73ZM218.9 121.42C218.9 103.67 210.62 86.31 187.14 86.31H151.54V156.73H182.9C207.46 156.72 218.9 143.02 218.9 121.42Z" fill="white"/>
<path d="M378.25 77.17C369.12 64.2 355.19 56.76 337.42 56.76C302.6 56.76 280.75 81.97 280.75 121.59C280.75 161.22 302.59 186.43 337.42 186.43C355.91 186.43 370.33 178.5 379.2 164.57V183.54H397.45V59.64H378.24V77.17H378.25ZM339.83 169.15C315.82 169.15 300.93 152.58 300.93 122.56C300.93 92.54 315.82 74.05 339.83 74.05C363.84 74.05 378.73 91.57 378.73 121.59C378.73 151.61 363.84 169.15 339.83 169.15Z" fill="white"/>
<path d="M494.86 137.21C494.86 158.1 480.93 169.62 463.16 169.62C445.4 169.62 432.42 158.1 432.42 137.21V59.63H413.21V136.96C413.21 165.29 432.9 186.44 463.15 186.44C492.93 186.44 514.06 165.3 514.06 136.96V59.63H494.85V137.21H494.86Z" fill="white"/>
<path d="M624.01 77.41C614.65 64.21 600.48 56.77 582.48 56.77C547.66 56.77 524.84 81.98 524.84 121.6C524.84 161.23 547.65 186.44 582.48 186.44C600.97 186.44 615.62 178.51 624.98 164.35V183.56H643.23V12.58H624.01V77.41ZM584.88 169.15C560.87 169.15 545.02 152.58 545.02 122.56C545.02 92.54 560.87 74.05 584.88 74.05C608.89 74.05 624.73 91.57 624.73 121.59C624.73 151.61 608.89 169.15 584.88 169.15Z" fill="white"/>
<path d="M670.28 42.12C677.443 42.12 683.25 36.3131 683.25 29.15C683.25 21.9869 677.443 16.18 670.28 16.18C663.117 16.18 657.31 21.9869 657.31 29.15C657.31 36.3131 663.117 42.12 670.28 42.12Z" fill="white"/>
<path d="M679.89 59.64H660.68V183.56H679.89V59.64Z" fill="white"/>
<path d="M753.11 56.77C718.29 56.77 693.07 81.98 693.07 121.6C693.07 161.23 718.28 186.44 753.11 186.44C787.93 186.44 813.15 161.23 813.15 121.6C813.15 81.98 787.94 56.77 753.11 56.77ZM753.11 169.15C729.1 169.15 713.25 151.61 713.25 121.59C713.25 91.57 729.1 74.05 753.11 74.05C777.12 74.05 792.97 91.57 792.97 121.59C792.97 151.61 777.12 169.15 753.11 169.15Z" fill="white"/>
<path d="M877.69 74.05C893.31 74.05 907.71 82.93 911.08 101.67H931C927.16 74.29 907.22 56.77 877.69 56.77C843.35 56.77 820.3 81.73 820.3 121.6C820.3 161.47 843.83 186.44 877.69 186.44C905.56 186.44 926.92 169.39 931 141.05H911.31C907.96 160.02 893.54 169.15 877.69 169.15C857.05 169.15 840.48 154.02 840.48 121.59C840.48 89.16 856.56 74.05 877.69 74.05Z" fill="white"/>
<path d="M995.78 56.77C960.96 56.77 935.74 81.98 935.74 121.6C935.74 161.23 960.95 186.44 995.78 186.44C1030.6 186.44 1055.82 161.23 1055.82 121.6C1055.82 81.98 1030.61 56.77 995.78 56.77ZM995.78 169.15C971.77 169.15 955.92 151.61 955.92 121.59C955.92 91.57 971.77 74.05 995.78 74.05C1019.79 74.05 1035.64 91.57 1035.64 121.59C1035.64 151.61 1019.8 169.15 995.78 169.15Z" fill="white"/>
<path d="M1086.49 12.58H1067.28V183.55H1086.49V12.58Z" fill="white"/>
<path d="M1124.89 12.58H1105.68V183.55H1124.89V12.58Z" fill="white"/>
<path d="M1193.54 56.77C1159.2 56.77 1136.39 82.7 1136.39 121.6C1136.39 161.7 1160.17 186.44 1194.03 186.44C1223.57 186.44 1241.34 169.15 1247.33 145.86H1227.41C1223.09 159.78 1212.04 168.91 1194.5 168.91C1172.89 168.91 1158.24 156.18 1156.32 128.33H1250.45V121.61C1250.45 86.05 1230.52 56.77 1193.54 56.77ZM1156.8 111.03C1159.92 86.53 1174.09 74.29 1193.54 74.29C1215.63 74.29 1227.88 90.63 1229.8 111.03H1156.8Z" fill="white"/>
<path d="M1315 74.05C1330.6 74.05 1345.02 82.93 1348.37 101.67H1368.31C1364.46 74.29 1344.53 56.77 1315 56.77C1280.66 56.77 1257.6 81.73 1257.6 121.6C1257.6 161.47 1281.14 186.44 1315 186.44C1342.85 186.44 1364.23 169.39 1368.31 141.05H1348.6C1345.25 160.02 1330.84 169.15 1314.99 169.15C1294.33 169.15 1277.76 154.02 1277.76 121.59C1277.76 89.16 1293.86 74.05 1315 74.05Z" fill="white"/>
<path d="M1403.09 59.64V24.58H1383.87V59.64H1363.46V76.46H1383.87V158.58C1383.87 177.55 1395.63 184.28 1414.86 184.28C1418.7 184.28 1423.25 184.05 1428.54 183.56V167.47H1417.26C1406.21 167.47 1403.09 163.38 1403.09 156.91V76.46H1439.31V183.56H1458.52V76.46V59.64H1439.31H1403.09V59.64Z" fill="white"/>
<path d="M1448.92 42.12C1456.08 42.12 1461.89 36.3131 1461.89 29.15C1461.89 21.9869 1456.08 16.18 1448.92 16.18C1441.76 16.18 1435.95 21.9869 1435.95 29.15C1435.95 36.3131 1441.76 42.12 1448.92 42.12Z" fill="white"/>
<path d="M1560.09 59.64L1539.68 114.64C1533.92 130.24 1527.43 147.3 1522.14 162.9C1516.87 147.3 1510.38 130.49 1504.62 114.88L1484.21 59.65H1463.32L1511.83 183.57H1531.99L1580.75 59.65H1560.09V59.64Z" fill="white"/>
<path d="M1687.55 121.59C1687.55 86.05 1667.63 56.76 1630.65 56.76C1596.31 56.76 1573.5 82.69 1573.5 121.59C1573.5 161.69 1597.28 186.43 1631.14 186.43C1660.68 186.43 1678.45 169.14 1684.44 145.85H1664.52C1660.2 159.77 1649.15 168.9 1631.61 168.9C1610 168.9 1595.35 156.17 1593.43 128.32H1687.56V121.59H1687.55ZM1593.9 111.03C1597.02 86.53 1611.19 74.29 1630.64 74.29C1652.73 74.29 1664.98 90.63 1666.9 111.03H1593.9Z" fill="white"/>
</svg>
